<?xml version="1.0" encoding="UTF-8" standalone="no"?>
<!-- Created with Inkscape (http://www.inkscape.org/) -->

<svg
   xmlns:dc="http://purl.org/dc/elements/1.1/"
   xmlns:cc="http://creativecommons.org/ns#"
   xmlns:rdf="http://www.w3.org/1999/02/22-rdf-syntax-ns#"
   xmlns:svg="http://www.w3.org/2000/svg"
   xmlns="http://www.w3.org/2000/svg"
   xmlns:sodipodi="http://sodipodi.sourceforge.net/DTD/sodipodi-0.dtd"
   xmlns:inkscape="http://www.inkscape.org/namespaces/inkscape"
   width="120"
   height="120"
   viewBox="0 0 120 120"
   id="svg2"
   version="1.1"
   inkscape:version="0.91 r13725"
   sodipodi:docname="Icon_Boundaries_120x120px.svg">
  <defs
     id="defs4" />
  <sodipodi:namedview
     id="base"
     pagecolor="#ffffff"
     bordercolor="#666666"
     borderopacity="1.0"
     inkscape:pageopacity="0.0"
     inkscape:pageshadow="2"
     inkscape:zoom="1.4"
     inkscape:cx="310.7916"
     inkscape:cy="-66.522006"
     inkscape:document-units="px"
     inkscape:current-layer="layer1"
     showgrid="false"
     units="px"
     inkscape:window-width="1806"
     inkscape:window-height="1057"
     inkscape:window-x="106"
     inkscape:window-y="-8"
     inkscape:window-maximized="1" />
  <metadata
     id="metadata7">
    <rdf:RDF>
      <cc:Work
         rdf:about="">
        <dc:format>image/svg+xml</dc:format>
        <dc:type
           rdf:resource="http://purl.org/dc/dcmitype/StillImage" />
        <dc:title />
      </cc:Work>
    </rdf:RDF>
  </metadata>
  <g
     inkscape:label="Layer 1"
     inkscape:groupmode="layer"
     id="layer1"
     transform="translate(0,-932.36218)">
    <path
       id="path4154-5"
       d="m 73.333337,952.36213 0,6.6666 -26.666661,0 0,-6.6666 26.666661,0 z m -53.333334,53.33337 6.66667,0 0,-26.66677 -6.66667,0 0,26.66677 z m 53.333334,26.6667 0,-6.6667 -26.666661,0 0,6.6667 26.666661,0 z m 6.66667,-73.33347 3.33333,0 c 5.513339,0 10,4.4867 10,10 l 0,3.3334 6.66666,0 0,-3.3334 c 0,-9.2033 -7.45999,-16.6666 -16.66666,-16.6666 l -3.33333,0 0,6.6666 z m -40,66.66677 -3.33333,0 c -5.51334,0 -10.000003,-4.4867 -10.000003,-10 l 0,-3.3333 -6.66667,0 0,3.3333 c 0,9.2033 7.459999,16.6667 16.666673,16.6667 l 3.33333,0 0,-6.6667 z m 53.33333,-13.3333 0,3.3333 c 0,5.5133 -4.486661,10 -10,10 l -3.33333,0 0,6.6667 3.33333,0 c 9.20667,0 16.66666,-7.4634 16.66666,-16.6667 l 0,-3.3333 -6.66666,0 z m 6.66666,-33.33347 -6.66666,0 0,26.66677 6.66666,0 0,-26.66677 z m -73.333323,-6.6666 0,-3.3334 c 0,-5.5133 4.486663,-10 10.000003,-10 l 3.33333,0 0,-6.6666 -3.33333,0 c -9.206673,0 -16.666673,7.4633 -16.666673,16.6666 l 0,3.3334 6.66667,0 z"
       inkscape:connector-curvature="0"
       style="fill:#756c5e" />
  </g>
</svg>
