<?xml version="1.0" encoding="UTF-8" standalone="no"?>
<!-- Created with Inkscape (http://www.inkscape.org/) -->

<svg
   xmlns:dc="http://purl.org/dc/elements/1.1/"
   xmlns:cc="http://creativecommons.org/ns#"
   xmlns:rdf="http://www.w3.org/1999/02/22-rdf-syntax-ns#"
   xmlns:svg="http://www.w3.org/2000/svg"
   xmlns="http://www.w3.org/2000/svg"
   xmlns:sodipodi="http://sodipodi.sourceforge.net/DTD/sodipodi-0.dtd"
   xmlns:inkscape="http://www.inkscape.org/namespaces/inkscape"
   width="120"
   height="120"
   viewBox="0 0 120 120"
   id="svg2"
   version="1.1"
   inkscape:version="0.91 r13725"
   sodipodi:docname="Icon_Business_120x120px.svg">
  <defs
     id="defs4" />
  <sodipodi:namedview
     id="base"
     pagecolor="#ffffff"
     bordercolor="#666666"
     borderopacity="1.0"
     inkscape:pageopacity="0.0"
     inkscape:pageshadow="2"
     inkscape:zoom="1.4"
     inkscape:cx="-329.76991"
     inkscape:cy="-66.522006"
     inkscape:document-units="px"
     inkscape:current-layer="layer1"
     showgrid="false"
     units="px"
     inkscape:window-width="1806"
     inkscape:window-height="1057"
     inkscape:window-x="106"
     inkscape:window-y="-8"
     inkscape:window-maximized="1" />
  <metadata
     id="metadata7">
    <rdf:RDF>
      <cc:Work
         rdf:about="">
        <dc:format>image/svg+xml</dc:format>
        <dc:type
           rdf:resource="http://purl.org/dc/dcmitype/StillImage" />
        <dc:title />
      </cc:Work>
    </rdf:RDF>
  </metadata>
  <g
     inkscape:label="Layer 1"
     inkscape:groupmode="layer"
     id="layer1"
     transform="translate(0,-932.36218)">
    <path
       id="path4313-1"
       d="M 95.483338,1029.2497 110,1025.5372 l -8.05,-31.50847 -14.691668,3.7125 0.81667,3.13747 c -7.48333,1 -10.6,-0.94167 -18.57917,-5.10827 -2.075,-1.0709 -4.05,-1.7417 -5.86666,-1.7417 -2.46667,0 -4.61667,1.1167 -6.26251,2.975 l -2.04583,2.3 c -8.15,-6.3542 -13.24166,-1.6875 -18.77083,0.35 -1.51666,0.56247 -3.30417,0.77077 -4.52917,0.84167 l 0.72084,-2.75837 -14.69167,-3.7083 -8.05,31.50837 14.51666,3.7125 0.75834,-2.8959 c 1.31667,0.25 6.2875,1.2125 7.22083,1.446 -2.70416,4.3958 0.0417,9.8208 4.99584,10.3958 0.94167,2.2708 3.0875,3.8833 5.58333,4.1792 0.9375,2.2666 3.06667,3.8666 5.55,4.1541 1.375,3.3959 5.4375,5.2792 9.3,3.5959 1.46667,1.475 3.50417,2.2375 5.65,2.2375 2.92917,0 5.62083,-1.4334 6.975,-4.2167 2.39167,-0.5 4.38334,-2.075 5.4,-4.2083 2.3,-0.4792 4.29583,-1.9584 5.35417,-4.175 3.16249,-0.6417 5.74166,-3.2209 6.07083,-6.675 0.12917,-1.3 -0.125,-2.6 -0.64583,-3.7917 1.20417,-0.6667 6.008326,-2.6958 7.858326,-3.4708 l 0.89584,3.425 z m 2.85833,-29.1501 5.574992,21.8333 -4.854162,1.2418 -5.69167,-21.821 4.97084,-1.2541 z m -77.404166,23.0751 -4.85416,-1.2418 5.57499,-21.8333 4.97084,1.2541 -5.69167,21.821 z m 15.69167,10.35 c -1.225,-0.9209 -1.37917,-2.6875 -0.33334,-3.925 l 2.54167,-3.1209 c 1.0375,-1.2416 2.875,-1.5125 4.10833,-0.5833 1.22917,0.9292 1.375,2.6833 0.33334,3.9333 l -2.5375,3.1125 c -1.04167,1.2459 -2.8875,1.5042 -4.1125,0.5834 z m 5.56666,4.1666 c -1.23333,-0.9333 -1.40416,-2.65 -0.35833,-3.9 l 2.56667,-3.1416 c 1.04166,-1.25 2.875,-1.5125 4.1,-0.5917 1.22917,0.925 1.375,2.6917 0.34166,3.9292 l -2.57083,3.1458 c -1.04166,1.2542 -2.84166,1.4833 -4.07917,0.5583 z m 5.56667,4.1667 c -1.22916,-0.925 -1.3875,-2.6875 -0.34167,-3.9375 l 2.5375,-3.1042 c 1.04584,-1.2458 2.87501,-1.5166 4.10833,-0.5916 1.22917,0.9291 1.37917,2.6875 0.33334,3.9333 l -2.53334,3.1125 c -1.04166,1.25 -2.87916,1.5042 -4.10416,0.5875 z m 12.20833,0.45 -2.54166,3.125 c -1.04583,1.2583 -2.87917,1.5125 -4.10834,0.5917 -1.22916,-0.925 -1.37916,-2.6875 -0.34166,-3.9292 l 2.55,-3.1292 c 1.05,-1.2416 2.88749,-1.5083 4.1125,-0.5791 1.23333,0.9208 1.38333,2.6833 0.32916,3.9208 z m 5.33334,4.625 c -0.5,0.3833 -1.10834,0.575 -1.72917,0.575 -0.66667,0 -1.3125,-0.2875 -1.86667,-0.7333 l 1.49167,-1.8375 c 0.6625,-0.7792 1.12083,-1.7167 1.38334,-2.7084 l 1,0.8834 c 1.04583,1.1875 0.90833,2.8916 -0.27917,3.8208 z m 16.1375,-12.5708 c -1.20417,0.925 -2.99584,0.7 -4.02917,-0.475 l -8.1,-6.9543 c -0.66667,-0.5749 -1.54167,0.4458 -0.86667,1.0083 l 7.9,6.7835 c 1.03334,1.1875 0.90417,2.9 -0.28333,3.8166 -1.15,0.9084 -2.96667,0.7542 -4.0375,-0.475 l -6.2125,-5.45 c -0.67083,-0.5791 -1.54167,0.425 -0.8875,1.0042 l 6.07083,5.3292 c 1.03751,1.1875 0.87917,2.8583 -0.31249,3.7875 -1.16668,0.9083 -2.95,0.7666 -4,-0.4417 l -1.87501,-1.675 -0.008,-0.9375 c -0.37083,-3.25 -2.9625,-5.6333 -6.0375,-5.975 -0.93333,-2.2792 -3.07083,-3.875 -5.5625,-4.1583 -0.90833,-2.2292 -3.02499,-3.875 -5.55833,-4.1667 -1.65417,-4.0626 -6.81666,-5.5584 -10.62083,-2.8293 -1.77084,-0.5541 -7.71667,-1.875 -10.14167,-2.35 l 3.48333,-13.35 c 3.26251,-0.1541 7.05834,-0.55 12.09167,-2.9375 3.6,-1.7125 5.325,-2.4958 8.6125,-0.054 -2.1125,2.1125 -4.27917,3.9792 -6.50834,5.2834 -2,1.1666 -2.86666,3.4875 -2.2125,5.9125 0.75417,2.7833 3.56667,5.5958 8.16667,5.5958 4.6,0 12.18333,-4.225 13.66251,-6.2582 6.13332,5.7958 12.09166,11.1833 17.26249,15.8166 1.45833,1.625 1.18751,3.2334 0,4.15 z m 2.19167,-10.5709 c -3.48751,-3.1375 -11.36668,-10.2625 -14.19584,-13.0958 -1.20416,-1.2001 -2.87917,-2.5792 -5.18333,-2.5792 -2.04167,0 -3.65834,1.1124 -4.7,1.95 -2.38751,1.925 -8.4125,5.7417 -10.8,3.8334 4.8375,-3.1417 9.2,-8.0959 13.3,-12.7626 1,-1.13757 2.44583,-0.9125 4.58333,0.1834 8.97083,4.6875 12.52916,6.9417 23.075,5.8083 l 3.245826,12.4459 c -2.08333,0.8291 -7.595826,3.25 -9.324986,4.2166 z"
       inkscape:connector-curvature="0"
       style="fill:#62b5e5" />
  </g>
</svg>
