<svg width="120" height="120" xmlns="http://www.w3.org/2000/svg">
 <g>
  <title>Layer 1</title>
  <ellipse fill=" rgb(122,193,67)" stroke="null" stroke-width="null" stroke-opacity="null" fill-opacity="null" cx="60" cy="60" id="svg_2" rx="60" ry="60"/>
  <ellipse fill="#ffffff" stroke="null" stroke-width="null" stroke-opacity="null" cx="60" cy="60" id="svg_4" rx="55" ry="55"/>
  <path stroke="null" id="svg_1" d="m102.2705,83.44648l-15.27221,4.47065l-4.4744,-15.27221l6.61221,3.61552c2.76415,-4.89446 4.42564,-10.49402 4.42564,-16.50989c0,-13.80575 -8.34121,-25.68747 -20.23793,-30.91198l2.33659,-7.17854c14.90841,6.21465 25.39868,20.92428 25.39868,38.09052c0,7.32481 -1.95403,14.1733 -5.31077,20.12917l6.52219,3.56677zm-42.4674,10.05896c-12.49681,0 -23.40339,-6.84474 -29.23924,-16.96371l6.63471,-3.84806l-15.38473,-4.08434l-4.08434,15.37723l6.35342,-3.68303c7.12228,12.35804 20.42921,20.703 35.72018,20.703c8.2587,0 15.93231,-2.45286 22.38699,-6.63096l-4.65067,-5.95586c-5.16075,3.20296 -11.22913,5.08574 -17.73632,5.08574zm-33.73239,-33.28982l-0.0225,-0.46507c0,-17.34626 13.16441,-31.62833 30.01935,-33.49985l-0.015,7.24605l11.27038,-11.23663l-11.23288,-11.26663l-0.01125,7.68861c-21.04055,1.88652 -37.53169,19.54033 -37.53169,41.06845l0.07876,1.50772l7.44483,-1.04265zm22.97583,-2.11531c-0.94139,3.23297 -0.54758,6.63096 1.55648,9.64265c3.39049,-4.99947 9.70641,-10.37775 14.10204,-11.3979c-8.98255,6.49219 -14.00828,15.60226 -14.66087,25.90875l3.7918,0c-0.08626,-3.89306 0.46882,-8.79502 1.86402,-11.00409c3.41675,1.13266 7.21605,0.46882 10.49027,-2.29908c6.46594,-5.48704 4.03934,-19.27779 15.42223,-20.86802c-15.26471,-8.34121 -29.79057,0.46507 -32.56597,10.0177z" fill="rgb(122,193,67)"/>
 </g>
</svg>
