<?xml version="1.0" encoding="UTF-8" standalone="no"?>
<!-- Created with Inkscape (http://www.inkscape.org/) -->

<svg
   xmlns:dc="http://purl.org/dc/elements/1.1/"
   xmlns:cc="http://creativecommons.org/ns#"
   xmlns:rdf="http://www.w3.org/1999/02/22-rdf-syntax-ns#"
   xmlns:svg="http://www.w3.org/2000/svg"
   xmlns="http://www.w3.org/2000/svg"
   xmlns:sodipodi="http://sodipodi.sourceforge.net/DTD/sodipodi-0.dtd"
   xmlns:inkscape="http://www.inkscape.org/namespaces/inkscape"
   width="120"
   height="120"
   viewBox="0 0 120 120"
   id="svg2"
   version="1.1"
   inkscape:version="0.91 r13725"
   sodipodi:docname="Icon_ArtHistory_120x120px.svg">
  <defs
     id="defs4">
    <clipPath
       clipPathUnits="userSpaceOnUse"
       id="clipPath4157">
      <rect
         style="opacity:0.98000004;fill:#fa4c06;fill-opacity:1"
         id="rect4159"
         width="125"
         height="429.28571"
         x="244.28572"
         y="225.82396" />
    </clipPath>
    <clipPath
       clipPathUnits="userSpaceOnUse"
       id="clipPath4157-2">
      <rect
         style="opacity:0.98000004;fill:#fa4c06;fill-opacity:1"
         id="rect4159-8"
         width="125"
         height="429.28571"
         x="244.28572"
         y="225.82396" />
    </clipPath>
    <clipPath
       clipPathUnits="userSpaceOnUse"
       id="clipPath4157-25">
      <rect
         style="opacity:0.98000004;fill:#fa4c06;fill-opacity:1"
         id="rect4159-7"
         width="125"
         height="429.28571"
         x="244.28572"
         y="225.82396" />
    </clipPath>
    <clipPath
       clipPathUnits="userSpaceOnUse"
       id="clipPath4157-2-0">
      <rect
         style="opacity:0.98000004;fill:#fa4c06;fill-opacity:1"
         id="rect4159-8-3"
         width="125"
         height="429.28571"
         x="244.28572"
         y="225.82396" />
    </clipPath>
  </defs>
  <sodipodi:namedview
     id="base"
     pagecolor="#ffffff"
     bordercolor="#666666"
     borderopacity="1.0"
     inkscape:pageopacity="0.0"
     inkscape:pageshadow="2"
     inkscape:zoom="1.979899"
     inkscape:cx="-30.234299"
     inkscape:cy="-44.379277"
     inkscape:document-units="px"
     inkscape:current-layer="layer1"
     showgrid="false"
     units="px"
     inkscape:window-width="1806"
     inkscape:window-height="1057"
     inkscape:window-x="106"
     inkscape:window-y="-8"
     inkscape:window-maximized="1" />
  <metadata
     id="metadata7">
    <rdf:RDF>
      <cc:Work
         rdf:about="">
        <dc:format>image/svg+xml</dc:format>
        <dc:type
           rdf:resource="http://purl.org/dc/dcmitype/StillImage" />
        <dc:title />
      </cc:Work>
    </rdf:RDF>
  </metadata>
  <g
     inkscape:label="Layer 1"
     inkscape:groupmode="layer"
     id="layer1"
     transform="translate(0,-932.36216)">
    <g
       id="g4165"
       transform="matrix(0.18181818,0,0,0.18181818,55.064935,821.24949)">
      <rect
         y="1239.0614"
         x="-110.35714"
         height="32.058289"
         width="275"
         id="rect4153"
         style="opacity:0.98000004;fill:#77448b;fill-opacity:1" />
      <g
         style="fill:#77448b;fill-opacity:1"
         id="g4204"
         transform="translate(-344.90438,554.20928)">
        <path
           style="fill:#77448b;fill-opacity:1"
           d="m 312.86341,651.29673 c -2.23263,-2.49507 -3.1068,-7.87525 -3.13147,-19.27313 -0.0925,-42.72635 -25.39804,-83.40669 -52.12473,-125.71685 l -14.1687,-22.43002 13.65185,-17.46278 64.00892,-36.5123 c 17.09634,-9.75218 18.87514,-10.29351 2.93432,-29.33727 -20.49824,-24.4883 -32.00723,-55.69531 -32.16484,-87.21607 -0.13171,-26.34189 7.60197,-45.81534 25.5838,-64.42015 31.39897,-32.48678 79.25003,-30.62882 108.74407,4.2223 13.84331,16.35772 20.1047,32.57305 21.15287,54.78031 0.45974,9.74062 -0.22351,23.41327 -1.51837,30.38366 -3.55296,19.12633 -16.49046,45.98778 -29.81784,61.90941 -16.24871,19.41155 -14.08975,19.16711 2.64926,29.67781 l 61.98758,38.92301 12.41675,19.01683 c 1.98351,3.03782 -4.21123,10.37893 -12.90549,20.6352 -33.90085,39.99142 -50.04445,79.42193 -50.13151,122.44559 -0.0251,12.39956 -0.86078,17.83687 -3.13147,20.37445 -4.65396,5.20099 -109.38103,5.20099 -114.035,0 z"
           id="path4147-0"
           inkscape:connector-curvature="0"
           sodipodi:nodetypes="sssccssssssssscsssss"
           clip-path="url(#clipPath4157-25)"
           transform="translate(5.7142792,8.5715398)" />
        <path
           transform="matrix(-1,0,0,1,744.28572,8.5714328)"
           style="fill:#77448b;fill-opacity:1"
           d="m 312.86341,651.29673 c -2.23263,-2.49507 -3.1068,-7.87525 -3.13147,-19.27313 -0.0925,-42.72635 -25.39804,-83.40669 -52.12473,-125.71685 l -14.1687,-22.43002 13.65185,-17.46278 64.00892,-36.5123 c 17.09634,-9.75218 18.87514,-10.29351 2.93432,-29.33727 -20.49824,-24.4883 -32.00723,-55.69531 -32.16484,-87.21607 -0.13171,-26.34189 7.60197,-45.81534 25.5838,-64.42015 31.39897,-32.48678 79.25003,-30.62882 108.74407,4.2223 13.84331,16.35772 20.1047,32.57305 21.15287,54.78031 0.45974,9.74062 -0.22351,23.41327 -1.51837,30.38366 -3.55296,19.12633 -16.49046,45.98778 -29.81784,61.90941 -16.24871,19.41155 -14.08975,19.16711 2.64926,29.67781 l 61.98758,38.92301 12.41675,19.01683 c 1.98351,3.03782 -4.21123,10.37893 -12.90549,20.6352 -33.90085,39.99142 -50.04445,79.42193 -50.13151,122.44559 -0.0251,12.39956 -0.86078,17.83687 -3.13147,20.37445 -4.65396,5.20099 -109.38103,5.20099 -114.035,0 z"
           id="path4147-9"
           inkscape:connector-curvature="0"
           sodipodi:nodetypes="sssccssssssssscsssss"
           clip-path="url(#clipPath4157-2-0)" />
        <rect
           style="opacity:1;fill:#77448b;fill-opacity:1"
           id="rect4202"
           width="2.6603863"
           height="429.28571"
           x="373.51355"
           y="234.39549" />
      </g>
    </g>
  </g>
</svg>
