<?xml version="1.0" encoding="UTF-8" standalone="no"?>
<!-- Created with Inkscape (http://www.inkscape.org/) -->

<svg
   xmlns:dc="http://purl.org/dc/elements/1.1/"
   xmlns:cc="http://creativecommons.org/ns#"
   xmlns:rdf="http://www.w3.org/1999/02/22-rdf-syntax-ns#"
   xmlns:svg="http://www.w3.org/2000/svg"
   xmlns="http://www.w3.org/2000/svg"
   xmlns:sodipodi="http://sodipodi.sourceforge.net/DTD/sodipodi-0.dtd"
   xmlns:inkscape="http://www.inkscape.org/namespaces/inkscape"
   width="120"
   height="120"
   viewBox="0 0 120 120"
   id="svg2"
   version="1.1"
   inkscape:version="0.91 r13725"
   sodipodi:docname="Icon_VenuesEvents_120x120px.svg">
  <defs
     id="defs4">
    <pattern
       y="0"
       x="0"
       height="6"
       width="6"
       patternUnits="userSpaceOnUse"
       id="EMFhbasepattern" />
  </defs>
  <sodipodi:namedview
     id="base"
     pagecolor="#ffffff"
     bordercolor="#666666"
     borderopacity="1.0"
     inkscape:pageopacity="0.0"
     inkscape:pageshadow="2"
     inkscape:zoom="0.49497475"
     inkscape:cx="-483.72992"
     inkscape:cy="138.72098"
     inkscape:document-units="px"
     inkscape:current-layer="layer1"
     showgrid="false"
     units="px"
     inkscape:window-width="1806"
     inkscape:window-height="1057"
     inkscape:window-x="106"
     inkscape:window-y="-8"
     inkscape:window-maximized="1" />
  <metadata
     id="metadata7">
    <rdf:RDF>
      <cc:Work
         rdf:about="">
        <dc:format>image/svg+xml</dc:format>
        <dc:type
           rdf:resource="http://purl.org/dc/dcmitype/StillImage" />
        <dc:title />
      </cc:Work>
    </rdf:RDF>
  </metadata>
  <g
     inkscape:label="Layer 1"
     inkscape:groupmode="layer"
     id="layer1"
     transform="translate(0,-932.36216)">
    <g
       id="g4185"
       transform="matrix(0.55483812,0,0,0.55483812,483.26222,517.6216)"
       style="fill:#005a84;fill-opacity:1">
      <path
         style="fill:#005a84;fill-opacity:1;fill-rule:nonzero;stroke:none"
         d="m -834.95024,833.94235 0,129.83527 144.1862,0 0,-129.83527 -23.64288,0 0,25.95011 -22.7965,0 0,-25.95011 -50.14327,0 0,25.95011 -22.79642,0 0,-25.95011 -24.80713,0 z m 9.18627,36.59695 125.85593,0 0,84.32743 -125.85593,0 0,-84.32743 z"
         id="path4141"
         inkscape:connector-curvature="0" />
      <path
         style="fill:#005a84;fill-opacity:1;fill-rule:nonzero;stroke:none"
         d="m -731.80592,882.43496 18.542,0 0,16.12872 -18.542,0 z"
         id="path4143"
         inkscape:connector-curvature="0" />
      <path
         style="fill:#005a84;fill-opacity:1;fill-rule:nonzero;stroke:none"
         d="m -731.80592,906.14135 18.542,0 0,16.12871 -18.542,0 z"
         id="path4145"
         inkscape:connector-curvature="0" />
      <path
         style="fill:#005a84;fill-opacity:1;fill-rule:nonzero;stroke:none"
         d="m -731.80592,929.6784 18.542,0 0,16.129 -18.542,0 z"
         id="path4147"
         inkscape:connector-curvature="0" />
      <path
         style="fill:#005a84;fill-opacity:1;fill-rule:nonzero;stroke:none"
         d="m -758.89897,882.43496 18.542,0 0,16.12872 -18.542,0 z"
         id="path4149"
         inkscape:connector-curvature="0" />
      <path
         style="fill:#005a84;fill-opacity:1;fill-rule:nonzero;stroke:none"
         d="m -758.89897,906.14135 18.542,0 0,16.12871 -18.542,0 z"
         id="path4151"
         inkscape:connector-curvature="0" />
      <path
         style="fill:#005a84;fill-opacity:1;fill-rule:nonzero;stroke:none"
         d="m -758.89897,929.6784 18.542,0 0,16.129 -18.542,0 z"
         id="path4153"
         inkscape:connector-curvature="0" />
      <path
         style="fill:#005a84;fill-opacity:1;fill-rule:nonzero;stroke:none"
         d="m -786.03436,906.12018 18.54172,0 0,16.12872 -18.54172,0 z"
         id="path4155"
         inkscape:connector-curvature="0" />
      <path
         style="fill:#005a84;fill-opacity:1;fill-rule:nonzero;stroke:none"
         d="m -786.03436,929.65723 18.54172,0 0,16.129 -18.54172,0 z"
         id="path4157"
         inkscape:connector-curvature="0" />
      <path
         style="fill:#005a84;fill-opacity:1;fill-rule:nonzero;stroke:none"
         d="m -813.12758,906.12018 18.54189,0 0,16.12872 -18.54189,0 z"
         id="path4159"
         inkscape:connector-curvature="0" />
      <path
         style="fill:#005a84;fill-opacity:1;fill-rule:nonzero;stroke:none"
         d="m -813.12758,929.65723 18.54189,0 0,16.129 -18.54189,0 z"
         id="path4161"
         inkscape:connector-curvature="0" />
      <path
         style="fill:#005a84;fill-opacity:1;fill-rule:nonzero;stroke:none"
         d="m -732.12342,826.66108 12.827,0 0,28.21497 -12.827,0 z"
         id="path4163"
         inkscape:connector-curvature="0" />
      <path
         style="fill:#005a84;fill-opacity:1;fill-rule:nonzero;stroke:none"
         d="m -804.93619,826.66108 12.827,0 0,28.21497 -12.827,0 z"
         id="path4165"
         inkscape:connector-curvature="0" />
    </g>
  </g>
</svg>
