<?xml version="1.0" encoding="UTF-8" standalone="no"?>
<!-- Created with Inkscape (http://www.inkscape.org/) -->

<svg
   xmlns:dc="http://purl.org/dc/elements/1.1/"
   xmlns:cc="http://creativecommons.org/ns#"
   xmlns:rdf="http://www.w3.org/1999/02/22-rdf-syntax-ns#"
   xmlns:svg="http://www.w3.org/2000/svg"
   xmlns="http://www.w3.org/2000/svg"
   xmlns:sodipodi="http://sodipodi.sourceforge.net/DTD/sodipodi-0.dtd"
   xmlns:inkscape="http://www.inkscape.org/namespaces/inkscape"
   width="120"
   height="120"
   viewBox="0 0 120 120"
   id="svg2"
   version="1.1"
   inkscape:version="0.91 r13725"
   sodipodi:docname="Regulatory.svg">
  <defs
     id="defs4" />
  <sodipodi:namedview
     id="base"
     pagecolor="#ffffff"
     bordercolor="#666666"
     borderopacity="1.0"
     inkscape:pageopacity="0.0"
     inkscape:pageshadow="2"
     inkscape:zoom="3.959798"
     inkscape:cx="35.245578"
     inkscape:cy="55.794785"
     inkscape:document-units="px"
     inkscape:current-layer="layer1"
     showgrid="false"
     units="px"
     inkscape:window-width="1806"
     inkscape:window-height="1057"
     inkscape:window-x="106"
     inkscape:window-y="-8"
     inkscape:window-maximized="1" />
  <metadata
     id="metadata7">
    <rdf:RDF>
      <cc:Work
         rdf:about="">
        <dc:format>image/svg+xml</dc:format>
        <dc:type
           rdf:resource="http://purl.org/dc/dcmitype/StillImage" />
        <dc:title></dc:title>
      </cc:Work>
    </rdf:RDF>
  </metadata>
  <g
     inkscape:label="Layer 1"
     inkscape:groupmode="layer"
     id="layer1"
     transform="translate(0,-932.36216)">
    <g
       id="g4187">
      <circle
         r="60"
         cy="992.36218"
         cx="60"
         id="path4461-4-3-9-1-1"
         style="opacity:1;fill:#005a84;fill-opacity:1;stroke:none;stroke-width:0.08233205;stroke-linecap:square;stroke-linejoin:miter;stroke-miterlimit:2;stroke-dasharray:none;stroke-opacity:1" />
      <g
         style="fill:#ffffff;fill-opacity:1"
         transform="matrix(0.4959285,0,0,0.4959285,438.32262,548.39737)"
         id="g4185-7-6">
        <path
           inkscape:connector-curvature="0"
           id="path4141-9-7"
           d="m -834.95024,833.94235 0,129.83527 144.1862,0 0,-129.83527 -23.64288,0 0,25.95011 -22.7965,0 0,-25.95011 -50.14327,0 0,25.95011 -22.79642,0 0,-25.95011 -24.80713,0 z m 9.18627,36.59695 125.85593,0 0,84.32743 -125.85593,0 0,-84.32743 z"
           style="fill:#ffffff;fill-opacity:1;fill-rule:nonzero;stroke:none" />
        <path
           inkscape:connector-curvature="0"
           id="path4143-3-4"
           d="m -731.80592,882.43496 18.542,0 0,16.12872 -18.542,0 z"
           style="fill:#ffffff;fill-opacity:1;fill-rule:nonzero;stroke:none" />
        <path
           inkscape:connector-curvature="0"
           id="path4145-1-8"
           d="m -731.80592,906.14135 18.542,0 0,16.12871 -18.542,0 z"
           style="fill:#ffffff;fill-opacity:1;fill-rule:nonzero;stroke:none" />
        <path
           inkscape:connector-curvature="0"
           id="path4147-5-6"
           d="m -731.80592,929.6784 18.542,0 0,16.129 -18.542,0 z"
           style="fill:#ffffff;fill-opacity:1;fill-rule:nonzero;stroke:none" />
        <path
           inkscape:connector-curvature="0"
           id="path4149-4-5"
           d="m -758.89897,882.43496 18.542,0 0,16.12872 -18.542,0 z"
           style="fill:#ffffff;fill-opacity:1;fill-rule:nonzero;stroke:none" />
        <path
           inkscape:connector-curvature="0"
           id="path4151-6-0-6"
           d="m -758.89897,906.14135 18.542,0 0,16.12871 -18.542,0 z"
           style="fill:#ffffff;fill-opacity:1;fill-rule:nonzero;stroke:none" />
        <path
           inkscape:connector-curvature="0"
           id="path4153-3-4"
           d="m -758.89897,929.6784 18.542,0 0,16.129 -18.542,0 z"
           style="fill:#ffffff;fill-opacity:1;fill-rule:nonzero;stroke:none" />
        <path
           inkscape:connector-curvature="0"
           id="path4155-8-0"
           d="m -786.03436,906.12018 18.54172,0 0,16.12872 -18.54172,0 z"
           style="fill:#ffffff;fill-opacity:1;fill-rule:nonzero;stroke:none" />
        <path
           inkscape:connector-curvature="0"
           id="path4157-8-5"
           d="m -786.03436,929.65723 18.54172,0 0,16.129 -18.54172,0 z"
           style="fill:#ffffff;fill-opacity:1;fill-rule:nonzero;stroke:none" />
        <path
           inkscape:connector-curvature="0"
           id="path4159-6-4"
           d="m -813.12758,906.12018 18.54189,0 0,16.12872 -18.54189,0 z"
           style="fill:#ffffff;fill-opacity:1;fill-rule:nonzero;stroke:none" />
        <path
           inkscape:connector-curvature="0"
           id="path4161-3-6"
           d="m -813.12758,929.65723 18.54189,0 0,16.129 -18.54189,0 z"
           style="fill:#ffffff;fill-opacity:1;fill-rule:nonzero;stroke:none" />
        <path
           inkscape:connector-curvature="0"
           id="path4163-0-2"
           d="m -732.12342,826.66108 12.827,0 0,28.21497 -12.827,0 z"
           style="fill:#ffffff;fill-opacity:1;fill-rule:nonzero;stroke:none" />
        <path
           inkscape:connector-curvature="0"
           id="path4165-5-4"
           d="m -804.93619,826.66108 12.827,0 0,28.21497 -12.827,0 z"
           style="fill:#ffffff;fill-opacity:1;fill-rule:nonzero;stroke:none" />
      </g>
    </g>
  </g>
</svg>
