<svg
   xmlns:dc="http://purl.org/dc/elements/1.1/"
   xmlns:cc="http://creativecommons.org/ns#"
   xmlns:rdf="http://www.w3.org/1999/02/22-rdf-syntax-ns#"
   xmlns:svg="http://www.w3.org/2000/svg"
   xmlns="http://www.w3.org/2000/svg"
   xmlns:sodipodi="http://sodipodi.sourceforge.net/DTD/sodipodi-0.dtd"
   xmlns:inkscape="http://www.inkscape.org/namespaces/inkscape"
   width="120"
   height="120"
   viewBox="0 0 120 120"
   id="svg4204"
   version="1.1"
   inkscape:version="0.91 r13725"
   sodipodi:docname="Economic.svg">
  <defs
     id="defs4206" />
  <sodipodi:namedview
     id="base"
     pagecolor="#ffffff"
     bordercolor="#666666"
     borderopacity="1.0"
     inkscape:pageopacity="0.0"
     inkscape:pageshadow="2"
     inkscape:zoom="2.8"
     inkscape:cx="-56.35869"
     inkscape:cy="41.147044"
     inkscape:document-units="px"
     inkscape:current-layer="layer1"
     showgrid="false"
     units="px"
     inkscape:window-width="1806"
     inkscape:window-height="1057"
     inkscape:window-x="106"
     inkscape:window-y="-8"
     inkscape:window-maximized="1" />
  <metadata
     id="metadata4209">
    <rdf:RDF>
      <cc:Work
         rdf:about="">
        <dc:format>image/svg+xml</dc:format>
        <dc:type
           rdf:resource="http://purl.org/dc/dcmitype/StillImage" />
        <dc:title />
      </cc:Work>
    </rdf:RDF>
  </metadata>
  <g
     inkscape:label="Layer 1"
     inkscape:groupmode="layer"
     id="layer1"
     transform="translate(0,-932.36216)">
    <g
       id="g4138">
      <circle
         r="60"
         cy="992.36218"
         cx="60"
         id="path4461-4-3-9-1-1-5"
         style="opacity:1;fill:#4bc2e4;fill-opacity:1;stroke:none;stroke-width:0.08233205;stroke-linecap:square;stroke-linejoin:miter;stroke-miterlimit:2;stroke-dasharray:none;stroke-opacity:1" />
      <path
         style="fill:#ffffff;fill-opacity:1"
         inkscape:connector-curvature="0"
         d="m 94.36801,1004.2261 14.0604,-3.5959 -7.7969,-30.51806 -14.23,3.5958 0.7911,3.0389 c -7.2482,0.9686 -10.2668,-0.9121 -17.9952,-4.9477 -2.0098,-1.0373 -3.9228,-1.687 -5.6824,-1.687 -2.389,0 -4.4714,1.0816 -6.0656,2.8815 l -1.9815,2.2277 c -7.8938,-6.1545 -12.82551,-1.6345 -18.18082,0.339 -1.46903,0.5448 -3.20034,0.7466 -4.38684,0.8153 l 0.69814,-2.6717 -14.22982,-3.5918 -7.79698,30.51796 14.06032,3.5959 0.73456,-2.8049 c 1.27522,0.2421 6.08988,1.1744 6.99385,1.4005 -2.6192,4.2576 0.0407,9.5121 4.83877,10.0691 0.9121,2.1994 2.99046,3.7613 5.40792,4.0478 0.9081,2.1954 2.9703,3.7451 5.3756,4.0236 1.3318,3.2891 5.2665,5.1132 9.0077,3.4829 1.4205,1.4286 3.394,2.1671 5.4723,2.1671 2.8371,0 5.4442,-1.3884 6.7558,-4.0841 2.3165,-0.4844 4.2455,-2.0099 5.2303,-4.076 2.2277,-0.4643 4.1608,-1.8969 5.1858,-4.0439 3.0632,-0.6215 5.5613,-3.1196 5.8801,-6.4651 0.1251,-1.2592 -0.1211,-2.5183 -0.6256,-3.6725 1.1664,-0.6458 5.8195,-2.6112 7.6114,-3.3618 l 0.8676,3.3174 z m 2.7685,-28.23386 5.3998,21.147 -4.7015,1.2028 -5.5129,-21.1351 4.8146,-1.2147 z m -74.9712,22.3498 -4.70162,-1.2028 5.39976,-21.147 4.81456,1.2147 -5.5127,21.1351 z m 15.1984,10.02466 c -1.1865,-0.892 -1.33577,-2.603 -0.32283,-3.8016 l 2.46181,-3.0229 c 1.00489,-1.2025 2.78463,-1.4649 3.97922,-0.5649 1.1905,0.9 1.3318,2.5989 0.3228,3.8097 l -2.45777,3.0146 c -1.00886,1.2067 -2.79674,1.457 -3.98323,0.5651 z m 5.39172,4.0356 c -1.19453,-0.904 -1.36006,-2.5667 -0.34703,-3.7774 l 2.48591,-3.0428 c 1.009,-1.2108 2.7847,-1.465 3.9712,-0.5731 1.1905,0.8958 1.3318,2.6071 0.3309,3.8056 l -2.49,3.047 c -1.0089,1.2147 -2.7523,1.4366 -3.95098,0.5407 z m 5.39168,4.0358 c -1.1905,-0.896 -1.3438,-2.6031 -0.3309,-3.8138 l 2.4578,-3.0066 c 1.0129,-1.2066 2.7846,-1.469 3.9791,-0.573 1.1905,0.8999 1.3359,2.603 0.3229,3.8096 l -2.4537,3.0147 c -1.0089,1.2107 -2.7887,1.457 -3.9752,0.5691 z m 11.8247,0.4359 -2.4619,3.0267 c -1.0129,1.2188 -2.7885,1.4649 -3.9791,0.5731 -1.1905,-0.896 -1.3359,-2.6031 -0.331,-3.8057 l 2.4698,-3.0309 c 1.017,-1.2025 2.7968,-1.4609 3.9833,-0.5609 1.1946,0.8919 1.3399,2.599 0.3189,3.7977 z m 5.1656,4.4796 c -0.4843,0.3712 -1.0735,0.5569 -1.6748,0.5569 -0.6457,0 -1.2712,-0.2785 -1.808,-0.7103 l 1.4449,-1.7797 c 0.6416,-0.7548 1.0855,-1.6628 1.3398,-2.6233 l 0.9686,0.8556 c 1.0129,1.1502 0.8797,2.8008 -0.2705,3.7008 z m 15.6303,-12.1758 c -1.1663,0.896 -2.9017,0.678 -3.9024,-0.46 l -7.8454,-6.7357 c -0.6458,-0.5569 -1.4933,0.4318 -0.8395,0.9766 l 7.6516,6.5703 c 1.0009,1.1501 0.8759,2.8088 -0.2744,3.6966 -1.1138,0.8799 -2.8733,0.7305 -3.9106,-0.4601 l -6.0171,-5.2787 c -0.6499,-0.5608 -1.4933,0.4117 -0.8596,0.9727 l 5.88,5.1617 c 1.0048,1.1501 0.8515,2.7684 -0.3028,3.6684 -1.13,0.8798 -2.8572,0.7425 -3.8742,-0.4278 l -1.8161,-1.6223 -0.01,-0.908 c -0.3592,-3.1479 -2.8694,-5.4563 -5.8478,-5.7873 -0.9039,-2.2075 -2.9742,-3.7532 -5.3876,-4.0276 -0.8798,-2.1591 -2.9299,-3.7531 -5.3836,-4.0358 -1.6022,-3.93476 -6.60245,-5.38356 -10.28708,-2.74026 -1.71515,-0.5367 -7.47406,-1.816 -9.82283,-2.2761 l 3.37381,-12.9304 c 3.15995,-0.1493 6.83644,-0.5328 11.7116,-2.8452 3.4869,-1.6587 5.1577,-2.4173 8.3418,-0.052 -2.0461,2.046 -4.1446,3.8541 -6.3038,5.1172 -1.9371,1.13 -2.77649,3.3779 -2.14295,5.7268 0.73055,2.6957 3.45465,5.4198 7.91005,5.4198 4.4554,0 11.8004,-4.0922 13.233,-6.0615 5.9405,5.6137 11.7116,10.83176 16.72,15.31946 1.4124,1.5739 1.1501,3.1318 0,4.0195 z m 2.1228,-10.23856 c -3.3779,-3.0389 -11.0095,-9.9399 -13.7496,-12.6841 -1.1664,-1.1625 -2.7887,-2.4981 -5.0205,-2.4981 -1.9774,0 -3.5433,1.0774 -4.5523,1.8886 -2.3124,1.8645 -8.1481,5.5612 -10.4605,3.713 4.6854,-3.043 8.9108,-7.8415 12.8819,-12.3615 0.9686,-1.1019 2.3691,-0.8839 4.4394,0.1776 8.6889,4.5401 12.1353,6.7235 22.3497,5.6258 l 3.1438,12.0547 c -2.0178,0.803 -7.357,3.1478 -9.0319,4.084 z"
         id="path4313-1-4-8" />
    </g>
  </g>
</svg>
