<svg
   xmlns:dc="http://purl.org/dc/elements/1.1/"
   xmlns:cc="http://creativecommons.org/ns#"
   xmlns:rdf="http://www.w3.org/1999/02/22-rdf-syntax-ns#"
   xmlns:svg="http://www.w3.org/2000/svg"
   xmlns="http://www.w3.org/2000/svg"
   xmlns:sodipodi="http://sodipodi.sourceforge.net/DTD/sodipodi-0.dtd"
   xmlns:inkscape="http://www.inkscape.org/namespaces/inkscape"
   width="120"
   height="120"
   viewBox="0 0 120 120"
   id="svg4156"
   version="1.1"
   inkscape:version="0.91 r13725"
   sodipodi:docname="OpenData_Cultural.svg">
  <defs
     id="defs4158">
    <clipPath
       clipPathUnits="userSpaceOnUse"
       id="clipPath4157-1-6">
      <rect
         style="opacity:0.98000004;fill:#fa4c06;fill-opacity:1"
         id="rect4159-85-1"
         width="125"
         height="429.28571"
         x="244.28572"
         y="225.82396" />
    </clipPath>
    <clipPath
       clipPathUnits="userSpaceOnUse"
       id="clipPath4157-2-5-6">
      <rect
         style="opacity:0.98000004;fill:#fa4c06;fill-opacity:1"
         id="rect4159-8-6-1"
         width="125"
         height="429.28571"
         x="244.28572"
         y="225.82396" />
    </clipPath>
    <clipPath
       clipPathUnits="userSpaceOnUse"
       id="clipPath4157-1-6-5">
      <rect
         style="opacity:0.98000004;fill:#fa4c06;fill-opacity:1"
         id="rect4159-85-1-1"
         width="125"
         height="429.28571"
         x="244.28572"
         y="225.82396" />
    </clipPath>
    <clipPath
       clipPathUnits="userSpaceOnUse"
       id="clipPath4157-2-5-6-6">
      <rect
         style="opacity:0.98000004;fill:#fa4c06;fill-opacity:1"
         id="rect4159-8-6-1-0"
         width="125"
         height="429.28571"
         x="244.28572"
         y="225.82396" />
    </clipPath>
  </defs>
  <sodipodi:namedview
     id="base"
     pagecolor="#ffffff"
     bordercolor="#666666"
     borderopacity="1.0"
     inkscape:pageopacity="0.0"
     inkscape:pageshadow="2"
     inkscape:zoom="2.8"
     inkscape:cx="3.9095529"
     inkscape:cy="51.659714"
     inkscape:document-units="px"
     inkscape:current-layer="layer1"
     showgrid="false"
     units="px"
     inkscape:window-width="1806"
     inkscape:window-height="1057"
     inkscape:window-x="106"
     inkscape:window-y="-8"
     inkscape:window-maximized="1" />
  <metadata
     id="metadata4161">
    <rdf:RDF>
      <cc:Work
         rdf:about="">
        <dc:format>image/svg+xml</dc:format>
        <dc:type
           rdf:resource="http://purl.org/dc/dcmitype/StillImage" />
        <dc:title />
      </cc:Work>
    </rdf:RDF>
  </metadata>
  <g
     inkscape:label="Layer 1"
     inkscape:groupmode="layer"
     id="layer1"
     transform="translate(0,-932.36216)">
    <g
       id="g4351"
       transform="translate(-265.13281,363.62931)">
      <ellipse
         ry="60.000004"
         rx="60"
         cy="628.73285"
         cx="325.13281"
         id="path4461-4-3-9-1-5"
         style="opacity:1;fill:#D6009A0;fill-opacity:1;stroke:none;stroke-width:0.08233205;stroke-linecap:square;stroke-linejoin:miter;stroke-miterlimit:2;stroke-dasharray:none;stroke-opacity:1" />
      <g
         style="fill:#ffffff"
         id="g4347">
        <path
           style="opacity:1;fill:#ffffff;fill-opacity:0.99215686;stroke:none;stroke-width:0.1;stroke-linecap:square;stroke-linejoin:miter;stroke-miterlimit:2;stroke-dasharray:none;stroke-opacity:1"
           d="m 321.25526,659.81219 c -2.92957,-0.11292 -4.4772,-0.29022 -4.88908,-0.56009 -0.3597,-0.23568 -0.54842,-1.12207 -0.54842,-2.57585 0,-3.90063 -1.01767,-7.6763 -3.29709,-12.23256 -1.23841,-2.47542 -2.04995,-3.86875 -5.0467,-8.66467 -1.60459,-2.56794 -2.53767,-4.17848 -2.50134,-4.3174 0.0319,-0.12188 0.50225,-0.79608 1.04529,-1.49824 l 0.98734,-1.27665 5.98899,-3.40595 c 3.29394,-1.87327 6.20487,-3.60818 6.46875,-3.85534 0.85133,-0.79744 0.71937,-1.20664 -1.14506,-3.55061 -2.90577,-3.65315 -4.4493,-6.96949 -5.20703,-11.1875 -0.32559,-1.81244 -0.30385,-5.43472 0.0421,-7.01525 0.55557,-2.5382 1.71707,-4.70325 3.59056,-6.6929 1.33411,-1.41683 2.22849,-2.1242 3.60629,-2.85223 2.87186,-1.5175 5.95768,-1.75835 8.99961,-0.70242 2.90159,1.00721 5.77483,3.60108 7.42499,6.70306 1.15988,2.18035 1.58428,4.05305 1.58574,6.99724 0.003,5.36488 -1.7246,10.10022 -5.31181,14.5625 -1.43211,1.78147 -1.92549,2.67498 -1.74264,3.15591 0.0649,0.17058 0.31497,0.47248 0.55581,0.67087 0.24084,0.1984 3.12795,1.89943 6.4158,3.78006 l 5.9779,3.41935 1,1.30168 c 0.55,0.71592 1.01699,1.37881 1.03776,1.47309 0.0208,0.0943 -1.08394,1.96357 -2.4549,4.15398 -4.85521,7.75727 -6.57429,11.17701 -7.63615,15.19048 -0.51804,1.95804 -0.6236,2.70264 -0.75154,5.3017 -0.13259,2.69344 -0.25203,3.09993 -0.96696,3.29086 -1.30353,0.34812 -8.65555,0.56314 -13.22821,0.38688 z"
           id="path4343"
           inkscape:connector-curvature="0" />
        <path
           style="opacity:1;fill:#ffffff;fill-opacity:0.99215686;stroke:none;stroke-width:0.1;stroke-linecap:square;stroke-linejoin:miter;stroke-miterlimit:2;stroke-dasharray:none;stroke-opacity:1"
           d="m 302.31776,666.062 0,-2.62534 22.78125,0.0316 22.78125,0.0316 0.0338,2.59375 0.0338,2.59375 -22.81504,0 -22.81504,0 0,-2.62533 z"
           id="path4345"
           inkscape:connector-curvature="0" />
      </g>
    </g>
  </g>
</svg>
