<svg
   xmlns:dc="http://purl.org/dc/elements/1.1/"
   xmlns:cc="http://creativecommons.org/ns#"
   xmlns:rdf="http://www.w3.org/1999/02/22-rdf-syntax-ns#"
   xmlns:svg="http://www.w3.org/2000/svg"
   xmlns="http://www.w3.org/2000/svg"
   xmlns:sodipodi="http://sodipodi.sourceforge.net/DTD/sodipodi-0.dtd"
   xmlns:inkscape="http://www.inkscape.org/namespaces/inkscape"
   width="120"
   height="120"
   viewBox="0 0 120 120"
   id="svg2"
   version="1.1"
   inkscape:version="0.91 r13725"
   sodipodi:docname="OpenData_ViewAll.svg">
  <defs
     id="defs4" />
  <sodipodi:namedview
     id="base"
     pagecolor="#ffffff"
     bordercolor="#666666"
     borderopacity="1.0"
     inkscape:pageopacity="0.0"
     inkscape:pageshadow="2"
     inkscape:zoom="2.8"
     inkscape:cx="60.05218"
     inkscape:cy="-1.7179702"
     inkscape:document-units="px"
     inkscape:current-layer="layer1"
     showgrid="false"
     units="px"
     inkscape:window-width="1806"
     inkscape:window-height="1057"
     inkscape:window-x="106"
     inkscape:window-y="-8"
     inkscape:window-maximized="1" />
  <metadata
     id="metadata7">
    <rdf:RDF>
      <cc:Work
         rdf:about="">
        <dc:format>image/svg+xml</dc:format>
        <dc:type
           rdf:resource="http://purl.org/dc/dcmitype/StillImage" />
        <dc:title></dc:title>
      </cc:Work>
    </rdf:RDF>
  </metadata>
  <g
     inkscape:label="Layer 1"
     inkscape:groupmode="layer"
     id="layer1"
     transform="translate(0,-932.36216)">
    <g
       id="g4224">
      <ellipse
         ry="60.000004"
         rx="60"
         cy="992.36218"
         cx="60.000034"
         id="path4461-4-3-9-1-1-5-5"
         style="opacity:1;fill:#898f92;fill-opacity:0.99215686;stroke:none;stroke-width:0.08233205;stroke-linecap:square;stroke-linejoin:miter;stroke-miterlimit:2;stroke-dasharray:none;stroke-opacity:1" />
      <path
         d="m 60.000071,988.37704 c -10.659814,0 -19.301343,8.64152 -19.301343,19.30136 0,10.6597 8.641529,19.3012 19.301343,19.3012 10.659814,0 19.301344,-8.6415 19.301344,-19.3012 0,-10.65984 -8.64153,-19.30136 -19.301344,-19.30136 z m -3.100827,32.21646 -4.696222,-4.7002 8.216537,-8.216 -8.216537,-8.21596 4.696222,-4.69612 12.91356,12.91208 -12.91356,12.9162 z"
         id="arrow-4-1-1-3"
         inkscape:connector-curvature="0"
         style="opacity:1;fill:#ffffff;fill-opacity:1;stroke:none;stroke-width:0.5;stroke-linecap:square;stroke-linejoin:miter;stroke-miterlimit:2;stroke-dasharray:none;stroke-opacity:1" />
      <g
         id="text5718-8-9"
         style="font-style:normal;font-weight:normal;font-size:16.26115799px;line-height:125%;font-family:sans-serif;letter-spacing:0px;word-spacing:0px;opacity:1;fill:#ffffff;fill-opacity:1;stroke:none;stroke-width:0.5;stroke-linecap:butt;stroke-linejoin:miter;stroke-miterlimit:2;stroke-dasharray:none;stroke-opacity:1">
        <path
           id="path4210"
           style="font-style:normal;font-variant:normal;font-weight:bold;font-stretch:normal;font-size:25.01716423px;font-family:'Swis721 BT';-inkscape-font-specification:'Swis721 BT Bold';fill:#ffffff;fill-opacity:1;stroke:none;stroke-width:0.5;stroke-miterlimit:2;stroke-dasharray:none;stroke-opacity:1"
           d="m 21.411548,979.74078 -4.776226,-13.27815 3.933362,0 2.724037,9.52802 2.748468,-9.52802 3.750132,0 -4.751796,13.27815 -3.627977,0 z" />
        <path
           id="path4212"
           style="font-style:normal;font-variant:normal;font-weight:bold;font-stretch:normal;font-size:25.01716423px;font-family:'Swis721 BT';-inkscape-font-specification:'Swis721 BT Bold';fill:#ffffff;fill-opacity:1;stroke:none;stroke-width:0.5;stroke-miterlimit:2;stroke-dasharray:none;stroke-opacity:1"
           d="m 31.452617,964.98457 0,-3.23709 3.554684,0 0,3.23709 -3.554684,0 z m 0,14.75621 0,-13.27815 3.554684,0 0,13.27815 -3.554684,0 z" />
        <path
           id="path4214"
           style="font-style:normal;font-variant:normal;font-weight:bold;font-stretch:normal;font-size:25.01716423px;font-family:'Swis721 BT';-inkscape-font-specification:'Swis721 BT Bold';fill:#ffffff;fill-opacity:1;stroke:none;stroke-width:0.5;stroke-miterlimit:2;stroke-dasharray:none;stroke-opacity:1"
           d="m 46.355419,975.7097 3.54247,0 q -0.537478,2.10105 -2.174344,3.29816 -1.624649,1.18489 -3.970009,1.18489 -2.882837,0 -4.568564,-1.93003 -1.685727,-1.94225 -1.685727,-5.25263 0,-3.26151 1.661296,-5.14269 1.661297,-1.88117 4.544134,-1.88117 3.053853,0 4.715149,1.85674 1.661296,1.84453 1.661296,5.26484 0,0.37868 -0.01221,0.57413 0,0.18323 -0.02443,0.35425 l -8.86839,0 q 0.07329,1.56357 0.757356,2.35757 0.696279,0.794 1.991112,0.794 0.916156,0 1.502496,-0.35424 0.58634,-0.36647 0.928371,-1.12382 z m -5.179335,-4.00666 5.228197,0 q -0.04886,-1.34369 -0.720709,-2.03997 -0.659633,-0.7085 -1.905605,-0.7085 -1.160464,0 -1.832312,0.7085 -0.659632,0.70849 -0.769571,2.03997 z" />
        <path
           id="path4216"
           style="font-style:normal;font-variant:normal;font-weight:bold;font-stretch:normal;font-size:25.01716423px;font-family:'Swis721 BT';-inkscape-font-specification:'Swis721 BT Bold';fill:#ffffff;fill-opacity:1;stroke:none;stroke-width:0.5;stroke-miterlimit:2;stroke-dasharray:none;stroke-opacity:1"
           d="m 54.820699,979.74078 -3.762346,-13.27815 3.603546,0 2.174343,9.19821 1.832312,-9.19821 3.627978,0 1.930035,9.19821 2.174343,-9.19821 3.444746,0 -3.7257,13.27815 -3.554685,0 -2.125482,-9.50359 -2.052189,9.50359 -3.566901,0 z" />
        <path
           id="path4218"
           style="font-style:normal;font-variant:normal;font-weight:bold;font-stretch:normal;font-size:25.01716423px;font-family:'Swis721 BT';-inkscape-font-specification:'Swis721 BT Bold';fill:#ffffff;fill-opacity:1;stroke:none;stroke-width:0.5;stroke-miterlimit:2;stroke-dasharray:none;stroke-opacity:1"
           d="m 86.336463,978.0917 q -0.671848,1.03831 -1.759019,1.58801 -1.087172,0.53747 -2.528591,0.53747 -1.930035,0 -2.98056,-1.09938 -1.03831,-1.09939 -1.03831,-3.12715 0,-1.88117 1.03831,-2.87062 1.050525,-0.98945 3.456961,-1.35591 0.549694,-0.0855 1.441419,-0.19545 2.259851,-0.29317 2.259851,-1.30705 0,-0.80621 -0.500832,-1.14824 -0.500831,-0.35425 -1.673511,-0.35425 -1.074956,0 -1.649081,0.42754 -0.574124,0.42754 -0.574124,1.22154 l 0,0.19545 -3.322592,0 0,-0.24431 q 0,-2.03998 1.441418,-3.20044 1.441419,-1.17268 3.982225,-1.17268 2.785114,0 4.263179,0.96502 1.49028,0.96501 1.49028,2.78511 l 0,7.54913 q 0,0.83064 0.171016,1.24597 0.171016,0.40311 0.574124,0.61077 l 0,0.59855 -3.70127,0 q -0.183231,-0.34203 -0.280954,-0.75735 -0.09772,-0.41533 -0.109939,-0.89173 z m -0.06108,-4.88616 q -0.867294,0.40311 -2.003328,0.64742 -1.123818,0.2443 -1.160464,0.25652 -0.940587,0.26874 -1.319264,0.67185 -0.366463,0.4031 -0.366463,1.1116 0,0.73292 0.476401,1.17268 0.476401,0.42754 1.282619,0.42754 1.441418,0 2.259851,-0.80622 0.830648,-0.81843 0.830648,-2.2232 l 0,-1.25819 z" />
        <path
           id="path4220"
           style="font-style:normal;font-variant:normal;font-weight:bold;font-stretch:normal;font-size:25.01716423px;font-family:'Swis721 BT';-inkscape-font-specification:'Swis721 BT Bold';fill:#ffffff;fill-opacity:1;stroke:none;stroke-width:0.5;stroke-miterlimit:2;stroke-dasharray:none;stroke-opacity:1"
           d="m 92.92057,979.74078 0,-17.9933 3.554685,0 0,17.9933 -3.554685,0 z" />
        <path
           id="path4222"
           style="font-style:normal;font-variant:normal;font-weight:bold;font-stretch:normal;font-size:25.01716423px;font-family:'Swis721 BT';-inkscape-font-specification:'Swis721 BT Bold';fill:#ffffff;fill-opacity:1;stroke:none;stroke-width:0.5;stroke-miterlimit:2;stroke-dasharray:none;stroke-opacity:1"
           d="m 99.810066,979.74078 0,-17.9933 3.554684,0 0,17.9933 -3.554684,0 z" />
      </g>
    </g>
  </g>
</svg>
