<svg
   xmlns:dc="http://purl.org/dc/elements/1.1/"
   xmlns:cc="http://creativecommons.org/ns#"
   xmlns:rdf="http://www.w3.org/1999/02/22-rdf-syntax-ns#"
   xmlns:svg="http://www.w3.org/2000/svg"
   xmlns="http://www.w3.org/2000/svg"
   xmlns:sodipodi="http://sodipodi.sourceforge.net/DTD/sodipodi-0.dtd"
   xmlns:inkscape="http://www.inkscape.org/namespaces/inkscape"
   width="120"
   height="120"
   viewBox="0 0 120 120"
   id="svg4178"
   version="1.1"
   inkscape:version="0.91 r13725"
   sodipodi:docname="TransportAccess.svg">
  <defs
     id="defs4180" />
  <sodipodi:namedview
     id="base"
     pagecolor="#ffffff"
     bordercolor="#666666"
     borderopacity="1.0"
     inkscape:pageopacity="0.0"
     inkscape:pageshadow="2"
     inkscape:zoom="2.8"
     inkscape:cx="47.929821"
     inkscape:cy="20.245451"
     inkscape:document-units="px"
     inkscape:current-layer="layer1"
     showgrid="false"
     units="px"
     inkscape:window-width="1806"
     inkscape:window-height="1057"
     inkscape:window-x="106"
     inkscape:window-y="-8"
     inkscape:window-maximized="1" />
  <metadata
     id="metadata4183">
    <rdf:RDF>
      <cc:Work
         rdf:about="">
        <dc:format>image/svg+xml</dc:format>
        <dc:type
           rdf:resource="http://purl.org/dc/dcmitype/StillImage" />
        <dc:title></dc:title>
      </cc:Work>
    </rdf:RDF>
  </metadata>
  <g
     inkscape:label="Layer 1"
     inkscape:groupmode="layer"
     id="layer1"
     transform="translate(0,-932.36216)">
    <g
       id="g4795">
      <circle
         r="60"
         cy="992.36218"
         cx="60"
         id="path4461-4"
         style="opacity:1;fill:#766d5f;fill-opacity:1;stroke:none;stroke-width:0.08233205;stroke-linecap:square;stroke-linejoin:miter;stroke-miterlimit:2;stroke-dasharray:none;stroke-opacity:1" />
      <g
         style="fill:#ffffff;fill-opacity:1"
         inkscape:label="Layer 1"
         id="layer1-27-9-5"
         transform="matrix(0.87706098,0,0,0.87706098,7.37634,111.87635)">
        <g
           style="fill:#ffffff;fill-opacity:1"
           id="g4404-0-9"
           transform="matrix(1.1769513,0,0,1.1769513,-64.167599,311.30035)">
          <path
             inkscape:connector-curvature="0"
             id="path4360-0-9"
             d="m 85.036458,571.29567 -2.496093,6.29492 3.02539,1.71875 c 6.767614,3.84539 11.876514,8.05675 15.906255,12.50781 -1.738001,2.95782 -3.268921,5.94393 -4.488281,8.98047 -3.51888,-4.69353 -8.064228,-8.92419 -14.07813,-12.30664 l -3.933594,-2.21289 -2.988281,7.23437 -8.71875,-16.5039 17.771484,-5.71289 z"
             style="color:#000000;font-style:normal;font-variant:normal;font-weight:normal;font-stretch:normal;font-size:medium;line-height:normal;font-family:sans-serif;text-indent:0;text-align:start;text-decoration:none;text-decoration-line:none;text-decoration-style:solid;text-decoration-color:#000000;letter-spacing:normal;word-spacing:normal;text-transform:none;direction:ltr;block-progression:tb;writing-mode:lr-tb;baseline-shift:baseline;text-anchor:start;white-space:normal;clip-rule:nonzero;display:inline;overflow:visible;visibility:visible;opacity:1;isolation:auto;mix-blend-mode:normal;color-interpolation:sRGB;color-interpolation-filters:linearRGB;solid-color:#000000;solid-opacity:1;fill:#ffffff;fill-opacity:1;fill-rule:nonzero;stroke:none;stroke-width:8;stroke-linecap:butt;stroke-linejoin:miter;stroke-miterlimit:4;stroke-dasharray:none;stroke-dashoffset:0;stroke-opacity:1;color-rendering:auto;image-rendering:auto;shape-rendering:auto;text-rendering:auto;enable-background:accumulate" />
          <path
             inkscape:connector-curvature="0"
             id="path4679-7-8-9-0"
             d="m 125.96224,571.29567 17.77149,5.71289 -8.71876,16.5039 -2.98828,-7.23437 -3.93359,2.21289 c -16.89723,9.50417 -22.43311,25.07292 -23.92187,41.1543 l -8.751961,0 c 1.20568,-19.30057 6.294481,-36.86763 30.013671,-50.33399 l 3.02539,-1.71875 -2.49609,-6.29687 z"
             style="color:#000000;font-style:normal;font-variant:normal;font-weight:normal;font-stretch:normal;font-size:medium;line-height:normal;font-family:sans-serif;text-indent:0;text-align:start;text-decoration:none;text-decoration-line:none;text-decoration-style:solid;text-decoration-color:#000000;letter-spacing:normal;word-spacing:normal;text-transform:none;direction:ltr;block-progression:tb;writing-mode:lr-tb;baseline-shift:baseline;text-anchor:start;white-space:normal;clip-rule:nonzero;display:inline;overflow:visible;visibility:visible;opacity:1;isolation:auto;mix-blend-mode:normal;color-interpolation:sRGB;color-interpolation-filters:linearRGB;solid-color:#000000;solid-opacity:1;fill:#ffffff;fill-opacity:1;fill-rule:nonzero;stroke:none;stroke-width:8;stroke-linecap:butt;stroke-linejoin:miter;stroke-miterlimit:4;stroke-dasharray:none;stroke-dashoffset:0;stroke-opacity:1;color-rendering:auto;image-rendering:auto;shape-rendering:auto;text-rendering:auto;enable-background:accumulate" />
          <g
             style="fill:#ffffff;fill-opacity:1"
             transform="translate(0,2)"
             id="g4399-0-3">
            <path
               style="color:#000000;font-style:normal;font-variant:normal;font-weight:normal;font-stretch:normal;font-size:medium;line-height:normal;font-family:sans-serif;text-indent:0;text-align:start;text-decoration:none;text-decoration-line:none;text-decoration-style:solid;text-decoration-color:#000000;letter-spacing:normal;word-spacing:normal;text-transform:none;direction:ltr;block-progression:tb;writing-mode:lr-tb;baseline-shift:baseline;text-anchor:start;white-space:normal;clip-rule:nonzero;display:inline;overflow:visible;visibility:visible;opacity:1;isolation:auto;mix-blend-mode:normal;color-interpolation:sRGB;color-interpolation-filters:linearRGB;solid-color:#000000;solid-opacity:1;fill:#ffffff;fill-opacity:1;fill-rule:nonzero;stroke:none;stroke-width:8;stroke-linecap:butt;stroke-linejoin:miter;stroke-miterlimit:4;stroke-dasharray:none;stroke-dashoffset:0;stroke-opacity:1;color-rendering:auto;image-rendering:auto;shape-rendering:auto;text-rendering:auto;enable-background:accumulate"
               d="m 105.49935,545.30153 11.17773,11.17578 -6.84375,0 0,24.16406 c -1.53098,1.32562 -2.97339,2.66709 -4.30468,4.0332 -1.36104,-1.37607 -2.82059,-2.72337 -4.36328,-4.04687 l 0,-24.15039 -6.843751,0 11.177731,-11.17578 z"
               id="path4366-2-6"
               inkscape:connector-curvature="0" />
            <path
               style="opacity:0.98000004;fill:#ffffff;fill-opacity:1;stroke:none;stroke-width:0.1;stroke-opacity:0"
               d="m 103.30008,582.53222 -2.08806,-2.12757 0,-11.85608 0,-11.85607 -3.249998,0 c -1.7875,0 -3.25,-0.16491 -3.25,-0.36646 0,-0.57393 10.169788,-10.63354 10.749998,-10.63354 0.58021,0 10.75,10.05961 10.75,10.63354 0,0.20155 -1.4625,0.36646 -3.25,0.36646 l -3.25,0 -0.0471,12.125 -0.0471,12.125 -2.11484,1.85865 -2.11485,1.85865 -2.08806,-2.12758 z"
               id="path4370-2-1"
               inkscape:connector-curvature="0" />
            <path
               style="opacity:0.98000004;fill:#ffffff;fill-opacity:1;stroke:none;stroke-width:0.1;stroke-opacity:0"
               d="m 103.30008,582.53222 -2.08806,-2.12757 0,-11.85608 0,-11.85607 -3.249998,0 c -1.7875,0 -3.25,-0.16491 -3.25,-0.36646 0,-0.57393 10.169788,-10.63354 10.749998,-10.63354 0.58021,0 10.75,10.05961 10.75,10.63354 0,0.20155 -1.4625,0.36646 -3.25,0.36646 l -3.25,0 -0.0471,12.125 -0.0471,12.125 -2.11484,1.85865 -2.11485,1.85865 -2.08806,-2.12758 z"
               id="path4372-5-0"
               inkscape:connector-curvature="0" />
          </g>
        </g>
      </g>
    </g>
  </g>
</svg>
