<svg
   xmlns:dc="http://purl.org/dc/elements/1.1/"
   xmlns:cc="http://creativecommons.org/ns#"
   xmlns:rdf="http://www.w3.org/1999/02/22-rdf-syntax-ns#"
   xmlns:svg="http://www.w3.org/2000/svg"
   xmlns="http://www.w3.org/2000/svg"
   xmlns:sodipodi="http://sodipodi.sourceforge.net/DTD/sodipodi-0.dtd"
   xmlns:inkscape="http://www.inkscape.org/namespaces/inkscape"
   width="120"
   height="120"
   viewBox="0 0 120 120"
   id="svg2"
   version="1.1"
   inkscape:version="0.91 r13725"
   sodipodi:docname="OpenData_ViewAll.svg">
  <defs
     id="defs4" />
  <sodipodi:namedview
     id="base"
     pagecolor="#ffffff"
     bordercolor="#666666"
     borderopacity="1.0"
     inkscape:pageopacity="0.0"
     inkscape:pageshadow="2"
     inkscape:zoom="1.979899"
     inkscape:cx="-42.505359"
     inkscape:cy="5.3695865"
     inkscape:document-units="px"
     inkscape:current-layer="text5718-8-9-6"
     showgrid="false"
     units="px"
     inkscape:window-width="1806"
     inkscape:window-height="1057"
     inkscape:window-x="106"
     inkscape:window-y="-8"
     inkscape:window-maximized="1" />
  <metadata
     id="metadata7">
    <rdf:RDF>
      <cc:Work
         rdf:about="">
        <dc:format>image/svg+xml</dc:format>
        <dc:type
           rdf:resource="http://purl.org/dc/dcmitype/StillImage" />
        <dc:title />
      </cc:Work>
    </rdf:RDF>
  </metadata>
  <g
     inkscape:label="Layer 1"
     inkscape:groupmode="layer"
     id="layer1"
     transform="translate(0,-932.36216)">
    <g
       style="font-style:normal;font-weight:normal;font-size:16.26115799px;line-height:125%;font-family:sans-serif;letter-spacing:0px;word-spacing:0px;opacity:1;fill:#ffffff;fill-opacity:1;stroke:none;stroke-width:0.5;stroke-linecap:butt;stroke-linejoin:miter;stroke-miterlimit:2;stroke-dasharray:none;stroke-opacity:1"
       id="text5718-8-9-6">
      <g
         id="g4274">
        <ellipse
           ry="60.000004"
           rx="60"
           cy="992.36218"
           cx="60"
           id="path4461-4-3-9-1-1-5-5"
           style="opacity:1;fill:#898f92;fill-opacity:0.99215686;stroke:none;stroke-width:0.08233205;stroke-linecap:square;stroke-linejoin:miter;stroke-miterlimit:2;stroke-dasharray:none;stroke-opacity:1" />
        <path
           d="m 61.49998,991.26347 c -10.49339,0 -19,8.50655 -19,19.00003 0,10.4934 8.50661,19 19,19 10.49339,0 19,-8.5066 19,-19 0,-10.49348 -8.50661,-19.00003 -19,-19.00003 z m -3.05241,31.71353 -4.62291,-4.6268 8.08826,-8.0878 -8.08826,-8.0877 4.62291,-4.62281 12.71194,12.71051 -12.71194,12.7146 z"
           id="arrow-4-1-1-3-2"
           inkscape:connector-curvature="0"
           style="opacity:1;fill:#ffffff;fill-opacity:1;stroke:none;stroke-width:0.5;stroke-linecap:square;stroke-linejoin:miter;stroke-miterlimit:2;stroke-dasharray:none;stroke-opacity:1" />
        <path
           id="path4258"
           style="font-style:normal;font-variant:normal;font-weight:bold;font-stretch:normal;font-size:22.5px;font-family:'Swis721 BT';-inkscape-font-specification:'Swis721 BT Bold';fill:#ffffff;fill-opacity:1;stroke:none;stroke-width:0.5;stroke-miterlimit:2;stroke-dasharray:none;stroke-opacity:1"
           d="m 24.129637,983.65186 -5.581055,-16.18287 3.691406,0 3.438721,12.10694 3.504639,-12.10694 3.647461,0 -5.515137,16.18287 -3.186035,0 z" />
        <path
           id="path4260"
           style="font-style:normal;font-variant:normal;font-weight:bold;font-stretch:normal;font-size:22.5px;font-family:'Swis721 BT';-inkscape-font-specification:'Swis721 BT Bold';fill:#ffffff;fill-opacity:1;stroke:none;stroke-width:0.5;stroke-miterlimit:2;stroke-dasharray:none;stroke-opacity:1"
           d="m 34.006346,970.38037 0,-2.91138 3.197021,0 0,2.91138 -3.197021,0 z m 0,13.27149 0,-11.94214 3.197021,0 0,11.94214 -3.197021,0 z" />
        <path
           id="path4262"
           style="font-style:normal;font-variant:normal;font-weight:bold;font-stretch:normal;font-size:22.5px;font-family:'Swis721 BT';-inkscape-font-specification:'Swis721 BT Bold';fill:#ffffff;fill-opacity:1;stroke:none;stroke-width:0.5;stroke-miterlimit:2;stroke-dasharray:none;stroke-opacity:1"
           d="m 47.409666,980.02637 3.186035,0 q -0.483398,1.88965 -1.955566,2.96631 -1.461182,1.06567 -3.570557,1.06567 -2.592773,0 -4.108887,-1.73584 -1.516113,-1.74683 -1.516113,-4.72412 0,-2.93335 1.494141,-4.62525 1.49414,-1.69189 4.086914,-1.69189 2.746582,0 4.240723,1.66992 1.49414,1.65894 1.49414,4.73511 0,0.34058 -0.01099,0.51636 0,0.16479 -0.02197,0.3186 l -7.976074,0 q 0.06592,1.40625 0.681152,2.12036 0.626221,0.71411 1.790772,0.71411 0.823974,0 1.351318,-0.3186 0.527344,-0.32959 0.834961,-1.01074 z m -4.658203,-3.60352 4.702148,0 q -0.04395,-1.20849 -0.648193,-1.83472 -0.593262,-0.6372 -1.713867,-0.6372 -1.043701,0 -1.647949,0.6372 -0.593262,0.63721 -0.692139,1.83472 z" />
        <path
           id="path4264"
           style="font-style:normal;font-variant:normal;font-weight:bold;font-stretch:normal;font-size:22.5px;font-family:'Swis721 BT';-inkscape-font-specification:'Swis721 BT Bold';fill:#ffffff;fill-opacity:1;stroke:none;stroke-width:0.5;stroke-miterlimit:2;stroke-dasharray:none;stroke-opacity:1"
           d="m 55.023191,983.65186 -3.383789,-11.94214 3.240967,0 1.955567,8.2727 1.647949,-8.2727 3.262939,0 1.73584,8.2727 1.955567,-8.2727 3.098144,0 -3.35083,11.94214 -3.197022,0 -1.911621,-8.54737 -1.845703,8.54737 -3.208008,0 z" />
        <path
           id="path4266"
           style="font-style:normal;font-variant:normal;font-weight:bold;font-stretch:normal;font-size:22.5px;font-family:'Swis721 BT';-inkscape-font-specification:'Swis721 BT Bold';fill:#ffffff;fill-opacity:1;stroke:none;stroke-width:0.5;stroke-miterlimit:2;stroke-dasharray:none;stroke-opacity:1"
           d="m 82.818602,970.70996 -2.241211,6.88843 4.493408,0 -2.252197,-6.88843 z m -1.933594,-3.24097 3.845215,0 5.83374,16.18287 -3.493652,0 -1.098633,-3.32886 -6.273194,0 -1.065673,3.32886 -3.504639,0 5.756836,-16.18287 z" />
        <path
           id="path4268"
           style="font-style:normal;font-variant:normal;font-weight:bold;font-stretch:normal;font-size:22.5px;font-family:'Swis721 BT';-inkscape-font-specification:'Swis721 BT Bold';fill:#ffffff;fill-opacity:1;stroke:none;stroke-width:0.5;stroke-miterlimit:2;stroke-dasharray:none;stroke-opacity:1"
           d="m 92.058104,983.65186 0,-16.18287 3.197021,0 0,16.18287 -3.197021,0 z" />
        <path
           id="path4270"
           style="font-style:normal;font-variant:normal;font-weight:bold;font-stretch:normal;font-size:22.5px;font-family:'Swis721 BT';-inkscape-font-specification:'Swis721 BT Bold';fill:#ffffff;fill-opacity:1;stroke:none;stroke-width:0.5;stroke-miterlimit:2;stroke-dasharray:none;stroke-opacity:1"
           d="m 98.254393,983.65186 0,-16.18287 3.197017,0 0,16.18287 -3.197017,0 z" />
      </g>
    </g>
  </g>
</svg>
