<?xml version="1.0" encoding="UTF-8" standalone="no"?>
<!-- Created with Inkscape (http://www.inkscape.org/) -->

<svg
   xmlns:dc="http://purl.org/dc/elements/1.1/"
   xmlns:cc="http://creativecommons.org/ns#"
   xmlns:rdf="http://www.w3.org/1999/02/22-rdf-syntax-ns#"
   xmlns:svg="http://www.w3.org/2000/svg"
   xmlns="http://www.w3.org/2000/svg"
   xmlns:sodipodi="http://sodipodi.sourceforge.net/DTD/sodipodi-0.dtd"
   xmlns:inkscape="http://www.inkscape.org/namespaces/inkscape"
   width="120"
   height="120"
   viewBox="0 0 120 120"
   id="svg2"
   version="1.1"
   inkscape:version="0.91 r13725"
   sodipodi:docname="Boundaries.svg">
  <defs
     id="defs4" />
  <sodipodi:namedview
     id="base"
     pagecolor="#ffffff"
     bordercolor="#666666"
     borderopacity="1.0"
     inkscape:pageopacity="0.0"
     inkscape:pageshadow="2"
     inkscape:zoom="2.8"
     inkscape:cx="49.400974"
     inkscape:cy="42.218254"
     inkscape:document-units="px"
     inkscape:current-layer="layer1"
     showgrid="false"
     units="px"
     inkscape:window-width="1806"
     inkscape:window-height="1057"
     inkscape:window-x="106"
     inkscape:window-y="-8"
     inkscape:window-maximized="1" />
  <metadata
     id="metadata7">
    <rdf:RDF>
      <cc:Work
         rdf:about="">
        <dc:format>image/svg+xml</dc:format>
        <dc:type
           rdf:resource="http://purl.org/dc/dcmitype/StillImage" />
        <dc:title></dc:title>
      </cc:Work>
    </rdf:RDF>
  </metadata>
  <g
     inkscape:label="Layer 1"
     inkscape:groupmode="layer"
     id="layer1"
     transform="translate(0,-932.36216)">
    <g
       id="g4757">
      <circle
         r="60"
         cy="992.36218"
         cx="60"
         id="path4461"
         style="opacity:1;fill:#152128;fill-opacity:1;stroke:none;stroke-width:0.08233205;stroke-linecap:square;stroke-linejoin:miter;stroke-miterlimit:2;stroke-dasharray:none;stroke-opacity:1" />
      <g
         style="fill:#ffffff;fill-opacity:1"
         inkscape:label="Layer 1"
         id="layer1-6-8-5"
         transform="matrix(0.88235253,0,0,0.88235253,4.8529656,101.30771)">
        <path
           id="path4154-5-5-4"
           d="m 76.666675,967.36216 0,7.0832 -28.33333,0 0,-7.0832 28.33333,0 z m -56.666672,56.66664 7.083337,0 0,-28.33344 -7.083337,0 0,28.33344 z m 56.666672,28.3334 0,-7.0834 -28.33333,0 0,7.0834 28.33333,0 z m 7.083337,-77.91684 3.541663,0 c 5.857924,0 10.625001,4.7672 10.625001,10.625 l 0,3.5418 7.083324,0 0,-3.5418 c 0,-9.7785 -7.926237,-17.7082 -17.708325,-17.7082 l -3.541663,0 0,7.0832 z m -42.500003,70.83344 -3.541664,0 c -5.857924,0 -10.625004,-4.7671 -10.625004,-10.625 l 0,-3.5416 -7.083337,0 0,3.5416 c 0,9.7785 7.92625,17.7084 17.708341,17.7084 l 3.541664,0 0,-7.0834 z m 56.666667,-14.1666 0,3.5416 c 0,5.8579 -4.767077,10.625 -10.625001,10.625 l -3.541663,0 0,7.0834 3.541663,0 c 9.782088,0 17.708325,-7.9299 17.708325,-17.7084 l 0,-3.5416 -7.083324,0 z M 105,995.69536 l -7.083324,0 0,28.33344 7.083324,0 0,-28.33344 z m -77.916659,-7.0832 0,-3.5418 c 0,-5.8578 4.76708,-10.625 10.625004,-10.625 l 3.541664,0 0,-7.0832 -3.541664,0 c -9.78209,0 -17.708341,7.9297 -17.708341,17.7082 l 0,3.5418 7.083337,0 z"
           inkscape:connector-curvature="0"
           style="fill:#ffffff;fill-opacity:1" />
      </g>
    </g>
  </g>
</svg>
