<?xml version="1.0" encoding="UTF-8" standalone="no"?>
<!-- Created with Inkscape (http://www.inkscape.org/) -->

<svg
   xmlns:dc="http://purl.org/dc/elements/1.1/"
   xmlns:cc="http://creativecommons.org/ns#"
   xmlns:rdf="http://www.w3.org/1999/02/22-rdf-syntax-ns#"
   xmlns:svg="http://www.w3.org/2000/svg"
   xmlns="http://www.w3.org/2000/svg"
   xmlns:sodipodi="http://sodipodi.sourceforge.net/DTD/sodipodi-0.dtd"
   xmlns:inkscape="http://www.inkscape.org/namespaces/inkscape"
   width="120"
   height="120"
   viewBox="0 0 120 120"
   id="svg2"
   version="1.1"
   inkscape:version="0.91 r13725"
   sodipodi:docname="OpenData_Environmental.svg">
  <defs
     id="defs4" />
  <sodipodi:namedview
     id="base"
     pagecolor="#ffffff"
     bordercolor="#666666"
     borderopacity="1.0"
     inkscape:pageopacity="0.0"
     inkscape:pageshadow="2"
     inkscape:zoom="2.8"
     inkscape:cx="60.05218"
     inkscape:cy="-1.7179702"
     inkscape:document-units="px"
     inkscape:current-layer="layer1"
     showgrid="false"
     units="px"
     inkscape:window-width="1806"
     inkscape:window-height="1057"
     inkscape:window-x="106"
     inkscape:window-y="-8"
     inkscape:window-maximized="1" />
  <metadata
     id="metadata7">
    <rdf:RDF>
      <cc:Work
         rdf:about="">
        <dc:format>image/svg+xml</dc:format>
        <dc:type
           rdf:resource="http://purl.org/dc/dcmitype/StillImage" />
        <dc:title></dc:title>
      </cc:Work>
    </rdf:RDF>
  </metadata>
  <g
     inkscape:label="Layer 1"
     inkscape:groupmode="layer"
     id="layer1"
     transform="translate(0,-932.36216)">
    <g
       id="g4928"
       transform="matrix(1.0006866,0,0,1.0006866,-1077.7395,-171.45028)">
      <ellipse
         ry="59.958836"
         rx="59.958832"
         cy="1163.0139"
         cx="1136.9589"
         id="path4461-4-3-9-1-1-5-6"
         style="opacity:1;fill:#7ac143;fill-opacity:1;stroke:none;stroke-width:0.08233205;stroke-linecap:square;stroke-linejoin:miter;stroke-miterlimit:2;stroke-dasharray:none;stroke-opacity:1" />
      <g
         style="fill:#ffffff"
         inkscape:label="Layer 1"
         id="layer1-5-0-5"
         transform="matrix(0.9392076,0,0,0.9392076,1080.6064,217.62734)">
        <path
           id="path4262-0-1-1"
           d="m 105,1033.6682 -16.258375,4.7594 -4.763311,-16.2584 7.03918,3.849 c 2.942631,-5.2105 4.71141,-11.1717 4.71141,-17.576 0,-14.69726 -8.879819,-27.34626 -21.54474,-32.90816 l 2.48746,-7.642 c 15.87109,6.6159 27.038736,22.2754 27.038736,40.55016 0,7.7978 -2.08023,15.0885 -5.653706,21.4289 L 105,1033.6682 Z m -45.209615,10.7085 c -13.303765,0 -24.914606,-7.2867 -31.127286,-18.0591 l 7.06314,-4.0965 -16.37816,-4.3481 -4.34808,16.3702 6.76367,-3.9209 c 7.58218,13.156 21.74837,22.0399 38.026715,22.0399 8.79197,0 16.96109,-2.6113 23.83257,-7.0592 l -4.95098,-6.3404 c -5.49398,3.4098 -11.9542,5.4141 -18.88159,5.4141 z m -35.910566,-35.4394 -0.024,-0.4951 c 0,-18.46646 14.01447,-33.67076 31.95777,-35.66306 l -0.016,7.7139 11.998145,-11.9622 -11.958225,-11.9941 -0.0119,8.1851 c -22.39919,2.0083 -39.95519,20.802 -39.95519,43.72036 l 0.0839,1.6051 7.92556,-1.11 z m 24.45943,-2.2519 c -1.00218,3.4417 -0.582939,7.0591 1.65698,10.2653 3.60942,-5.3223 10.333175,-11.0479 15.012636,-12.1339 -9.562575,6.9114 -14.912825,16.6097 -15.607545,27.5817 l 4.03663,0 c -0.0918,-4.1444 0.4991,-9.3629 1.98439,-11.7146 3.637375,1.2058 7.682015,0.4991 11.167655,-2.4476 6.88346,-5.8413 4.300169,-20.52266 16.418089,-22.21556 -16.2504,-8.8798 -31.714225,0.4951 -34.668835,10.66466 z"
           inkscape:connector-curvature="0"
           style="fill:#ffffff" />
      </g>
    </g>
  </g>
</svg>
