<?xml version="1.0" encoding="UTF-8" standalone="no"?>
<!-- Created with Inkscape (http://www.inkscape.org/) -->

<svg
   xmlns:dc="http://purl.org/dc/elements/1.1/"
   xmlns:cc="http://creativecommons.org/ns#"
   xmlns:rdf="http://www.w3.org/1999/02/22-rdf-syntax-ns#"
   xmlns:svg="http://www.w3.org/2000/svg"
   xmlns="http://www.w3.org/2000/svg"
   xmlns:sodipodi="http://sodipodi.sourceforge.net/DTD/sodipodi-0.dtd"
   xmlns:inkscape="http://www.inkscape.org/namespaces/inkscape"
   width="120"
   height="120"
   viewBox="0 0 120 120"
   id="svg2"
   version="1.1"
   inkscape:version="0.91 r13725"
   sodipodi:docname="Icon_CityLiving_120x120px.svg">
  <defs
     id="defs4" />
  <sodipodi:namedview
     id="base"
     pagecolor="#ffffff"
     bordercolor="#666666"
     borderopacity="1.0"
     inkscape:pageopacity="0.0"
     inkscape:pageshadow="2"
     inkscape:zoom="1.4"
     inkscape:cx="-58.341347"
     inkscape:cy="-66.522006"
     inkscape:document-units="px"
     inkscape:current-layer="layer1"
     showgrid="false"
     units="px"
     inkscape:window-width="1806"
     inkscape:window-height="1057"
     inkscape:window-x="106"
     inkscape:window-y="-8"
     inkscape:window-maximized="1" />
  <metadata
     id="metadata7">
    <rdf:RDF>
      <cc:Work
         rdf:about="">
        <dc:format>image/svg+xml</dc:format>
        <dc:type
           rdf:resource="http://purl.org/dc/dcmitype/StillImage" />
        <dc:title></dc:title>
      </cc:Work>
    </rdf:RDF>
  </metadata>
  <g
     inkscape:label="Layer 1"
     inkscape:groupmode="layer"
     id="layer1"
     transform="translate(0,-932.36218)">
    <path
       id="path4323-3"
       d="m 107.02475,987.63751 -8.09862,0 -5.123369,0 0,-5.9505 10.577989,0 c 1.64234,0 2.97525,-1.33092 2.97525,-2.97524 0,-1.64432 -1.33291,-2.97525 -2.97525,-2.97525 l -10.577989,0 0,-6.28173 10.577989,0 c 1.64234,0 2.97525,-1.33093 2.97525,-2.97524 0,-1.64433 -1.33291,-2.97526 -2.97525,-2.97526 l -10.577989,0 0,-0.99175 c 0,-1.64431 -1.33291,-2.97524 -2.97524,-2.97524 -1.64234,0 -2.975261,1.33093 -2.975261,2.97524 l 0,0.99175 -55.704529,0 0,-0.99175 c 0,-1.64431 -1.33291,-2.97524 -2.97525,-2.97524 -1.64233,0 -2.97525,1.33093 -2.97525,2.97524 l 0,0.99175 -10.57799,0 c -1.64233,0 -2.97524,1.33093 -2.97524,2.97526 0,1.64431 1.33291,2.97524 2.97524,2.97524 l 10.57799,0 0,6.28173 -10.57799,0 c -1.64233,0 -2.97524,1.33093 -2.97524,2.97525 0,1.64432 1.33291,2.97524 2.97524,2.97524 l 10.57799,0 0,5.9505 -5.12336,0 -8.09863,0 c -1.64233,0 -2.97524,1.33093 -2.97524,2.97525 l 0,8.09861 c 0,1.64433 1.33291,2.97523 2.97524,2.97523 l 5.12338,0 0,20.5253 c 0,1.6443 1.33291,2.9752 2.97525,2.9752 1.64233,0 2.97524,-1.3309 2.97524,-2.9752 l 0,-20.5253 2.14812,0 0,16.5583 c 0,1.6443 1.33292,2.9752 2.97525,2.9752 1.64234,0 2.97525,-1.3309 2.97525,-2.9752 l 0,-16.5583 55.704529,0 0,16.5583 c 0,1.6443 1.332921,2.9752 2.975261,2.9752 1.64233,0 2.97524,-1.3309 2.97524,-2.9752 l 0,-16.5583 2.148129,0 0,20.5253 c 0,1.6443 1.33291,2.9752 2.97524,2.9752 1.64234,0 2.97525,-1.3309 2.97525,-2.9752 l 0,-20.5253 5.12337,0 c 1.64234,0 2.97525,-1.3309 2.97525,-2.97523 l 0,-8.09861 c 0,-1.64234 -1.33291,-2.97525 -2.97525,-2.97525 z m -74.87702,-18.18272 55.70453,0 0,6.28173 -55.704529,0 0,-6.28173 z m 0,12.23222 55.70453,0 0,5.9505 -55.704529,0 0,-5.9505 z"
       inkscape:connector-curvature="0"
       style="fill:#f58025" />
  </g>
</svg>
