<?xml version="1.0" standalone="no"?><!DOCTYPE svg PUBLIC "-//W3C//DTD SVG 1.1//EN" "http://www.w3.org/Graphics/SVG/1.1/DTD/svg11.dtd"><svg xmlns:xlink="http://www.w3.org/1999/xlink" version="1.1" style="font-family:'jaf-domus-titling-web', 'helvetica neue', 'arial', sans-serif;font-size:12px;" xmlns="http://www.w3.org/2000/svg" width="1100" height="550"><desc>Created with Highstock 4.2.3</desc><defs><clipPath id="highcharts-384"><rect x="0" y="0" width="1024" height="422"></rect></clipPath></defs><rect x="0" y="0" width="1100" height="550" fill="#FFFFFF" class=" highcharts-background"></rect><g class="highcharts-grid" ></g><g class="highcharts-grid" ><path fill="none" d="M 66 474.5 L 1090 474.5" stroke="#D8D8D8" stroke-width="1"  opacity="1"></path><path fill="none" d="M 66 427.5 L 1090 427.5" stroke="#D8D8D8" stroke-width="1"  opacity="1"></path><path fill="none" d="M 66 380.5 L 1090 380.5" stroke="#D8D8D8" stroke-width="1"  opacity="1"></path><path fill="none" d="M 66 333.5 L 1090 333.5" stroke="#D8D8D8" stroke-width="1"  opacity="1"></path><path fill="none" d="M 66 286.5 L 1090 286.5" stroke="#D8D8D8" stroke-width="1"  opacity="1"></path><path fill="none" d="M 66 240.5 L 1090 240.5" stroke="#D8D8D8" stroke-width="1"  opacity="1"></path><path fill="none" d="M 66 193.5 L 1090 193.5" stroke="#D8D8D8" stroke-width="1"  opacity="1"></path><path fill="none" d="M 66 146.5 L 1090 146.5" stroke="#D8D8D8" stroke-width="1"  opacity="1"></path><path fill="none" d="M 66 99.5 L 1090 99.5" stroke="#D8D8D8" stroke-width="1"  opacity="1"></path><path fill="none" d="M 66 51.5 L 1090 51.5" stroke="#D8D8D8" stroke-width="1"  opacity="1"></path></g><g class="highcharts-axis" ><path fill="none" d="M 167.5 474 L 167.5 484" stroke="#C0D0E0" stroke-width="1" opacity="1"></path><path fill="none" d="M 270.5 474 L 270.5 484" stroke="#C0D0E0" stroke-width="1" opacity="1"></path><path fill="none" d="M 372.5 474 L 372.5 484" stroke="#C0D0E0" stroke-width="1" opacity="1"></path><path fill="none" d="M 475.5 474 L 475.5 484" stroke="#C0D0E0" stroke-width="1" opacity="1"></path><path fill="none" d="M 577.5 474 L 577.5 484" stroke="#C0D0E0" stroke-width="1" opacity="1"></path><path fill="none" d="M 679.5 474 L 679.5 484" stroke="#C0D0E0" stroke-width="1" opacity="1"></path><path fill="none" d="M 782.5 474 L 782.5 484" stroke="#C0D0E0" stroke-width="1" opacity="1"></path><path fill="none" d="M 884.5 474 L 884.5 484" stroke="#C0D0E0" stroke-width="1" opacity="1"></path><path fill="none" d="M 987.5 474 L 987.5 484" stroke="#C0D0E0" stroke-width="1" opacity="1"></path><path fill="none" d="M 1090.5 474 L 1090.5 484" stroke="#C0D0E0" stroke-width="1" opacity="1"></path><path fill="none" d="M 65.5 474 L 65.5 484" stroke="#C0D0E0" stroke-width="1" opacity="1"></path><path fill="none" d="M 66 474.5 L 1090 474.5" stroke="#C0D0E0" stroke-width="1" ></path></g><g class="highcharts-axis" ><text x="27"  text-anchor="middle" transform="translate(0,0) rotate(270 27 263)" class=" highcharts-yaxis-title" style="color:black;font-size:15px;font-family:'helvetica neue', 'arial', sans-serif;fill:black;" y="263"><tspan>kL / population</tspan></text></g><g class="highcharts-series-group" ><g class="highcharts-series highcharts-series-0"  transform="translate(66,52) scale(1 1)" clip-path="url(#highcharts-384)"><rect x="17.5" y="29.5" width="66" height="393" stroke="#FFFFFF" stroke-width="1" fill="#69bfbf" rx="0" ry="0"></rect><rect x="120.5" y="32.5" width="66" height="390" stroke="#FFFFFF" stroke-width="1" fill="#69bfbf" rx="0" ry="0"></rect><rect x="222.5" y="52.5" width="66" height="370" stroke="#FFFFFF" stroke-width="1" fill="#69bfbf" rx="0" ry="0"></rect><rect x="325.5" y="51.5" width="66" height="371" stroke="#FFFFFF" stroke-width="1" fill="#69bfbf" rx="0" ry="0"></rect><rect x="427.5" y="30.5" width="66" height="392" stroke="#FFFFFF" stroke-width="1" fill="#69bfbf" rx="0" ry="0"></rect><rect x="529.5" y="25.5" width="66" height="397" stroke="#FFFFFF" stroke-width="1" fill="#69bfbf" rx="0" ry="0"></rect><rect x="632.5" y="31.5" width="66" height="391" stroke="#FFFFFF" stroke-width="1" fill="#69bfbf" rx="0" ry="0"></rect><rect x="734.5" y="30.5" width="66" height="392" stroke="#FFFFFF" stroke-width="1" fill="#69bfbf" rx="0" ry="0"></rect><rect x="837.5" y="33.5" width="66" height="389" stroke="#FFFFFF" stroke-width="1" fill="#69bfbf" rx="0" ry="0"></rect><rect x="939.5" y="36.5" width="66" height="386" stroke="#FFFFFF" stroke-width="1" fill="#69bfbf" rx="0" ry="0"></rect></g><g class="highcharts-markers highcharts-series-0"  transform="translate(66,52) scale(1 1)" clip-path="none"></g></g><text x="550" text-anchor="middle" class="highcharts-title"  style="color:black;font-size:18px;fill:black;width:1036px;" y="24"><tspan>City of Sydney - Per capita potable water consumption intensity – Residential (2005_06 - 2014_15)</tspan></text><g class="highcharts-legend"  transform="translate(486,509)"><g ><g><g class="highcharts-legend-item"  transform="translate(8,3)"><text x="21" style="color:black;font-size:13px;font-weight:normal;cursor:pointer;font-family:'helvetica neue', 'arial', sans-serif;fill:black;" text-anchor="start"  y="16"><tspan>All - Residential</tspan></text><rect x="0" y="4" width="16" height="13"  fill="#69bfbf"></rect></g></g></g></g><g class="highcharts-axis-labels highcharts-xaxis-labels" ><text x="117.2" style="color:black;cursor:default;font-size:13px;font-family:'helvetica neue', 'arial', sans-serif;fill:black;width:98px;text-overflow:clip;" text-anchor="middle" transform="translate(0,0)" y="495" opacity="1">2005-06</text><text x="219.60000000000002" style="color:black;cursor:default;font-size:13px;font-family:'helvetica neue', 'arial', sans-serif;fill:black;width:98px;text-overflow:clip;" text-anchor="middle" transform="translate(0,0)" y="495" opacity="1">2006-07</text><text x="322" style="color:black;cursor:default;font-size:13px;font-family:'helvetica neue', 'arial', sans-serif;fill:black;width:98px;text-overflow:clip;" text-anchor="middle" transform="translate(0,0)" y="495" opacity="1">2007-08</text><text x="424.40000000000003" style="color:black;cursor:default;font-size:13px;font-family:'helvetica neue', 'arial', sans-serif;fill:black;width:98px;text-overflow:clip;" text-anchor="middle" transform="translate(0,0)" y="495" opacity="1">2008-09</text><text x="526.8" style="color:black;cursor:default;font-size:13px;font-family:'helvetica neue', 'arial', sans-serif;fill:black;width:98px;text-overflow:clip;" text-anchor="middle" transform="translate(0,0)" y="495" opacity="1">2009-10</text><text x="629.2" style="color:black;cursor:default;font-size:13px;font-family:'helvetica neue', 'arial', sans-serif;fill:black;width:98px;text-overflow:clip;" text-anchor="middle" transform="translate(0,0)" y="495" opacity="1">2010-11</text><text x="731.6" style="color:black;cursor:default;font-size:13px;font-family:'helvetica neue', 'arial', sans-serif;fill:black;width:98px;text-overflow:clip;" text-anchor="middle" transform="translate(0,0)" y="495" opacity="1">2011-12</text><text x="834" style="color:black;cursor:default;font-size:13px;font-family:'helvetica neue', 'arial', sans-serif;fill:black;width:98px;text-overflow:clip;" text-anchor="middle" transform="translate(0,0)" y="495" opacity="1">2012-13</text><text x="936.4000000000001" style="color:black;cursor:default;font-size:13px;font-family:'helvetica neue', 'arial', sans-serif;fill:black;width:98px;text-overflow:clip;" text-anchor="middle" transform="translate(0,0)" y="495" opacity="1">2013-14</text><text x="1038.8" style="color:black;cursor:default;font-size:13px;font-family:'helvetica neue', 'arial', sans-serif;fill:black;width:98px;text-overflow:clip;" text-anchor="middle" transform="translate(0,0)" y="495" opacity="1">2014-15</text></g><g class="highcharts-axis-labels highcharts-yaxis-labels" ><text x="51" style="color:black;cursor:default;font-size:13px;font-family:'helvetica neue', 'arial', sans-serif;fill:black;width:353px;text-overflow:clip;" text-anchor="end" transform="translate(0,0)" y="480" opacity="1">0</text><text x="51" style="color:black;cursor:default;font-size:13px;font-family:'helvetica neue', 'arial', sans-serif;fill:black;width:353px;text-overflow:clip;" text-anchor="end" transform="translate(0,0)" y="433" opacity="1">10</text><text x="51" style="color:black;cursor:default;font-size:13px;font-family:'helvetica neue', 'arial', sans-serif;fill:black;width:353px;text-overflow:clip;" text-anchor="end" transform="translate(0,0)" y="386" opacity="1">20</text><text x="51" style="color:black;cursor:default;font-size:13px;font-family:'helvetica neue', 'arial', sans-serif;fill:black;width:353px;text-overflow:clip;" text-anchor="end" transform="translate(0,0)" y="339" opacity="1">30</text><text x="51" style="color:black;cursor:default;font-size:13px;font-family:'helvetica neue', 'arial', sans-serif;fill:black;width:353px;text-overflow:clip;" text-anchor="end" transform="translate(0,0)" y="292" opacity="1">40</text><text x="51" style="color:black;cursor:default;font-size:13px;font-family:'helvetica neue', 'arial', sans-serif;fill:black;width:353px;text-overflow:clip;" text-anchor="end" transform="translate(0,0)" y="245" opacity="1">50</text><text x="51" style="color:black;cursor:default;font-size:13px;font-family:'helvetica neue', 'arial', sans-serif;fill:black;width:353px;text-overflow:clip;" text-anchor="end" transform="translate(0,0)" y="198" opacity="1">60</text><text x="51" style="color:black;cursor:default;font-size:13px;font-family:'helvetica neue', 'arial', sans-serif;fill:black;width:353px;text-overflow:clip;" text-anchor="end" transform="translate(0,0)" y="151" opacity="1">70</text><text x="51" style="color:black;cursor:default;font-size:13px;font-family:'helvetica neue', 'arial', sans-serif;fill:black;width:353px;text-overflow:clip;" text-anchor="end" transform="translate(0,0)" y="104" opacity="1">80</text><text x="51" style="color:black;cursor:default;font-size:13px;font-family:'helvetica neue', 'arial', sans-serif;fill:black;width:353px;text-overflow:clip;" text-anchor="end" transform="translate(0,0)" y="58" opacity="1">90</text></g><g class="highcharts-tooltip"  style="cursor:default;padding:0;pointer-events:none;white-space:nowrap;" transform="translate(0,-9999)"><path fill="none" d="M 3.5 0.5 L 13.5 0.5 C 16.5 0.5 16.5 0.5 16.5 3.5 L 16.5 13.5 C 16.5 16.5 16.5 16.5 13.5 16.5 L 3.5 16.5 C 0.5 16.5 0.5 16.5 0.5 13.5 L 0.5 3.5 C 0.5 0.5 0.5 0.5 3.5 0.5"  stroke="black" stroke-opacity="0.049999999999999996" stroke-width="5" transform="translate(1, 1)"></path><path fill="none" d="M 3.5 0.5 L 13.5 0.5 C 16.5 0.5 16.5 0.5 16.5 3.5 L 16.5 13.5 C 16.5 16.5 16.5 16.5 13.5 16.5 L 3.5 16.5 C 0.5 16.5 0.5 16.5 0.5 13.5 L 0.5 3.5 C 0.5 0.5 0.5 0.5 3.5 0.5"  stroke="black" stroke-opacity="0.09999999999999999" stroke-width="3" transform="translate(1, 1)"></path><path fill="none" d="M 3.5 0.5 L 13.5 0.5 C 16.5 0.5 16.5 0.5 16.5 3.5 L 16.5 13.5 C 16.5 16.5 16.5 16.5 13.5 16.5 L 3.5 16.5 C 0.5 16.5 0.5 16.5 0.5 13.5 L 0.5 3.5 C 0.5 0.5 0.5 0.5 3.5 0.5"  stroke="black" stroke-opacity="0.15" stroke-width="1" transform="translate(1, 1)"></path><path fill="rgb(249, 249, 249)" fill-opacity=" .85" d="M 3.5 0.5 L 13.5 0.5 C 16.5 0.5 16.5 0.5 16.5 3.5 L 16.5 13.5 C 16.5 16.5 16.5 16.5 13.5 16.5 L 3.5 16.5 C 0.5 16.5 0.5 16.5 0.5 13.5 L 0.5 3.5 C 0.5 0.5 0.5 0.5 3.5 0.5"></path><text x="8"  style="font-size:13px;font-family:'helvetica neue', 'arial', sans-serif;color:#333333;fill:#333333;" y="21"></text></g></svg>