<?xml version="1.0" standalone="no"?><!DOCTYPE svg PUBLIC "-//W3C//DTD SVG 1.1//EN" "http://www.w3.org/Graphics/SVG/1.1/DTD/svg11.dtd"><svg xmlns:xlink="http://www.w3.org/1999/xlink" version="1.1" style="font-family:'jaf-domus-titling-web', 'helvetica neue', 'arial', sans-serif;font-size:12px;" xmlns="http://www.w3.org/2000/svg" width="1100" height="550"><desc>Created with Highstock 4.2.3</desc><defs><clipPath id="highcharts-317"><rect x="0" y="0" width="1080" height="483"></rect></clipPath></defs><rect x="0" y="0" width="1100" height="550" fill="#FFFFFF" class=" highcharts-background"></rect><g class="highcharts-series-group" ><g class="highcharts-series highcharts-series-0"  transform="translate(10,52) scale(1 1)"><path fill="#69b2bf" d="M 581.9614039278997 52.50000393049288 A 189.5 189.5 0 0 1 707.6352746405985 383.86623194397396 L 582 242 A 0 0 0 0 0 582 242 Z" stroke="#FFFFFF" stroke-width="1" stroke-linejoin="round" transform="translate(0,0)"></path><path fill="#bfb269" d="M 707.4933456146667 383.9917962645652 A 189.5 189.5 0 0 1 424.5992526736591 347.5237164864344 L 582 242 A 0 0 0 0 0 582 242 Z" stroke="#FFFFFF" stroke-width="1" stroke-linejoin="round" transform="translate(0,0)"></path><path fill="#9969bf" d="M 424.4938076751271 347.36626300348775 A 189.5 189.5 0 0 1 399.64140147055025 190.46756805297312 L 582 242 A 0 0 0 0 0 582 242 Z" stroke="#FFFFFF" stroke-width="1" stroke-linejoin="round" transform="translate(0,0)"></path><path fill="#69bf80" d="M 399.69302507320015 190.2852352510506 A 189.5 189.5 0 0 1 451.1216172017838 104.95585048560596 L 582 242 A 0 0 0 0 0 582 242 Z" stroke="#FFFFFF" stroke-width="1" stroke-linejoin="round" transform="translate(0,0)"></path><path fill="#bf696c" d="M 451.25872676764345 104.82504064668987 A 189.5 189.5 0 0 1 483.21116423180854 80.28724253304784 L 582 242 A 0 0 0 0 0 582 242 Z" stroke="#FFFFFF" stroke-width="1" stroke-linejoin="round" transform="translate(0,0)"></path><path fill="#6984bf" d="M 483.37292635673714 80.18853457011642 A 189.5 189.5 0 0 1 517.6640894151348 63.75539107951616 L 582 242 A 0 0 0 0 0 582 242 Z" stroke="#FFFFFF" stroke-width="1" stroke-linejoin="round" transform="translate(0,0)"></path><path fill="#9ebf69" d="M 517.8423661623006 63.69114430195094 A 189.5 189.5 0 0 1 546.6972449680515 55.817386721653776 L 582 242 A 0 0 0 0 0 582 242 Z" stroke="#FFFFFF" stroke-width="1" stroke-linejoin="round" transform="translate(0,0)"></path><path fill="#bf69b7" d="M 546.8834452016754 55.78217706380448 A 189.5 189.5 0 0 1 560.1822792956067 53.76016079675085 L 582 242 A 0 0 0 0 0 582 242 Z" stroke="#FFFFFF" stroke-width="1" stroke-linejoin="round" transform="translate(0,0)"></path><path fill="#69bfae" d="M 560.3705300122962 53.7384371995945 A 189.5 189.5 0 0 1 573.212440721607 52.70385951655348 L 582 242 A 0 0 0 0 0 582 242 Z" stroke="#FFFFFF" stroke-width="1" stroke-linejoin="round" transform="translate(0,0)"></path><path fill="#bf9669" d="M 573.4017412243204 52.69516660680202 A 189.5 189.5 0 0 1 581.7367883017355 52.50018279797234 L 582 242 A 0 0 0 0 0 582 242 Z" stroke="#FFFFFF" stroke-width="1" stroke-linejoin="round" transform="translate(0,0)"></path></g><g class="highcharts-markers highcharts-series-0"  transform="translate(10,52) scale(1 1)"></g></g><text x="550" text-anchor="middle" class="highcharts-title"  style="color:black;font-size:18px;fill:black;width:1036px;" y="24"><tspan>City of Sydney - Potable water consumption by sector (2014_15)</tspan></text><g class="highcharts-data-labels highcharts-series-0"  visibility="visible" transform="translate(10,52) scale(1 1)" opacity="1"><path fill="none" d="M 792.2960438898472 163.82256207122975 C 787.2960438898472 163.82256207122975 779.8137279394199 166.65363042398673 769.5255435075825 170.5463494090276 L 759.2373590757451 174.4390683940685" stroke="#69b2bf" stroke-width="1"></path><path fill="none" d="M 548.8306293833268 459.1849479386678 C 553.8306293833268 459.1849479386678 554.8573034832511 451.25110017780514 556.2689803706471 440.3420595066191 L 557.6806572580431 429.433018835433" stroke="#bfb269" stroke-width="1"></path><path fill="none" d="M 360.1905046026641 275.7621176454778 C 365.1905046026641 275.7621176454778 373.09244520940064 274.5133844283306 383.9576135436635 272.7963762547531 L 394.8227818779264 271.07936808117563" stroke="#9969bf" stroke-width="1"></path><path fill="none" d="M 366.8857453669551 178 C 371.8857453669551 178 400.933435498646 132.19698439806425 410.3506090660923 137.88177480762118 L 419.7677826335386 143.56656521717812" stroke="#69bf80" stroke-width="1"></path><path fill="none" d="M 376.575450605471 152 C 381.575450605471 152 453.27534995975145 73.683986246796 459.9702490162183 82.41200587462221 L 466.66514807268516 91.14002550244842" stroke="#bf696c" stroke-width="1"></path><path fill="none" d="M 390.34523847487844 126 C 395.34523847487844 126 490.6331700736604 50.75317200747128 495.38510921876554 60.67381081559334 L 500.1370483638707 70.5944496237154" stroke="#6984bf" stroke-width="1"></path><path fill="none" d="M 409.1965435397709 100 C 414.1965435397709 100 526.3646533968505 37.44863830802939 529.2582175227826 48.0612386797158 L 532.1517816487147 58.67383905140221" stroke="#9ebf69" stroke-width="1"></path><path fill="none" d="M 435.14091498955736 74 C 440.14091498955736 74 550.3458278049096 32.38217822805355 551.9921440892879 43.258282433686695 L 553.6384603736661 54.13438663931984" stroke="#bf69b7" stroke-width="1"></path><path fill="none" d="M 473.3756785305689 48 C 478.3756785305689 48 565.1353711882691 30.673449738789927 566.0124913628745 41.63842398405381 L 566.8896115374798 52.60339822931769" stroke="#69bfae" stroke-width="1"></path><path fill="none" d="M 571.9834520263978 22 C 576.9834520263978 22 577.1662874878504 30.05524309326114 577.4176862473475 41.052369930018244 L 577.6690850068447 52.04949676677535" stroke="#bf9669" stroke-width="1"></path><g  style="cursor:pointer;" transform="translate(797,154)"><text x="5"  style="font-size:11px;font-weight:bold;color:#000000;text-shadow:0 0 6px #ffffff, 0 0 3px #ffffff;fill:#000000;text-rendering:geometricprecision;" y="16"><tspan style="font-weight:bold">Residential - Apartments</tspan><tspan dx="0">: 38.49 %</tspan></text></g><g  style="cursor:pointer;" transform="translate(274,449)"><text x="5"  style="font-size:11px;font-weight:bold;color:#000000;text-shadow:0 0 6px #ffffff, 0 0 3px #ffffff;fill:#000000;text-rendering:geometricprecision;" y="16"><tspan style="font-weight:bold">Non-Residential - Commercial Office</tspan><tspan dx="0">: 27.12 %</tspan></text></g><g  style="cursor:pointer;" transform="translate(0,266)"><text x="5"  style="font-size:11px;font-weight:bold;color:#000000;text-shadow:0 0 6px #ffffff, 0 0 3px #ffffff;fill:#000000;text-rendering:geometricprecision;" y="16"><tspan style="font-weight:bold">Non-Residential - Accommodation/Entertainment</tspan><tspan dx="0">: 13.79 %</tspan></text></g><g  style="cursor:pointer;" transform="translate(139,168)"><text x="5"  style="font-size:11px;font-weight:bold;color:#000000;text-shadow:0 0 6px #ffffff, 0 0 3px #ffffff;fill:#000000;text-rendering:geometricprecision;" y="16"><tspan style="font-weight:bold">Residential - Single Dwelling</tspan><tspan dx="0">: 8.49 %</tspan></text></g><g  style="cursor:pointer;" transform="translate(117,142)"><text x="5"  style="font-size:11px;font-weight:bold;color:#000000;text-shadow:0 0 6px #ffffff, 0 0 3px #ffffff;fill:#000000;text-rendering:geometricprecision;" y="16"><tspan style="font-weight:bold">Non-Residential - Public Open Space</tspan><tspan dx="0">: 3.4 %</tspan></text></g><g  style="cursor:pointer;" transform="translate(162,116)"><text x="5"  style="font-size:11px;font-weight:bold;color:#000000;text-shadow:0 0 6px #ffffff, 0 0 3px #ffffff;fill:#000000;text-rendering:geometricprecision;" y="16"><tspan style="font-weight:bold">Non-Residential - Healthcare</tspan><tspan dx="0">: 3.21 %</tspan></text></g><g  style="cursor:pointer;" transform="translate(211,90)"><text x="5"  style="font-size:11px;font-weight:bold;color:#000000;text-shadow:0 0 6px #ffffff, 0 0 3px #ffffff;fill:#000000;text-rendering:geometricprecision;" y="16"><tspan style="font-weight:bold">Non-Residential - Retail</tspan><tspan dx="0">: 2.54 %</tspan></text></g><g  style="cursor:pointer;" transform="translate(207,64)"><text x="5"  style="font-size:11px;font-weight:bold;color:#000000;text-shadow:0 0 6px #ffffff, 0 0 3px #ffffff;fill:#000000;text-rendering:geometricprecision;" y="16"><tspan style="font-weight:bold">Non-Residential - Community</tspan><tspan dx="0">: 1.16 %</tspan></text></g><g  style="cursor:pointer;" transform="translate(248,38)"><text x="5"  style="font-size:11px;font-weight:bold;color:#000000;text-shadow:0 0 6px #ffffff, 0 0 3px #ffffff;fill:#000000;text-rendering:geometricprecision;" y="16"><tspan style="font-weight:bold">Non-Residential - Industrial</tspan><tspan dx="0">: 1.09 %</tspan></text></g><g  style="cursor:pointer;" transform="translate(347,12)"><text x="5"  style="font-size:11px;font-weight:bold;color:#000000;text-shadow:0 0 6px #ffffff, 0 0 3px #ffffff;fill:#000000;text-rendering:geometricprecision;" y="16"><tspan style="font-weight:bold">Non-Residential - Education</tspan><tspan dx="0">: 0.73 %</tspan></text></g></g><g class="highcharts-tooltip"  style="cursor:default;padding:0;pointer-events:none;white-space:nowrap;" transform="translate(0,-9999)"><path fill="none" d="M 3.5 0.5 L 13.5 0.5 C 16.5 0.5 16.5 0.5 16.5 3.5 L 16.5 13.5 C 16.5 16.5 16.5 16.5 13.5 16.5 L 3.5 16.5 C 0.5 16.5 0.5 16.5 0.5 13.5 L 0.5 3.5 C 0.5 0.5 0.5 0.5 3.5 0.5"  stroke="black" stroke-opacity="0.049999999999999996" stroke-width="5" transform="translate(1, 1)"></path><path fill="none" d="M 3.5 0.5 L 13.5 0.5 C 16.5 0.5 16.5 0.5 16.5 3.5 L 16.5 13.5 C 16.5 16.5 16.5 16.5 13.5 16.5 L 3.5 16.5 C 0.5 16.5 0.5 16.5 0.5 13.5 L 0.5 3.5 C 0.5 0.5 0.5 0.5 3.5 0.5"  stroke="black" stroke-opacity="0.09999999999999999" stroke-width="3" transform="translate(1, 1)"></path><path fill="none" d="M 3.5 0.5 L 13.5 0.5 C 16.5 0.5 16.5 0.5 16.5 3.5 L 16.5 13.5 C 16.5 16.5 16.5 16.5 13.5 16.5 L 3.5 16.5 C 0.5 16.5 0.5 16.5 0.5 13.5 L 0.5 3.5 C 0.5 0.5 0.5 0.5 3.5 0.5"  stroke="black" stroke-opacity="0.15" stroke-width="1" transform="translate(1, 1)"></path><path fill="rgb(249, 249, 249)" fill-opacity=" .85" d="M 3.5 0.5 L 13.5 0.5 C 16.5 0.5 16.5 0.5 16.5 3.5 L 16.5 13.5 C 16.5 16.5 16.5 16.5 13.5 16.5 L 3.5 16.5 C 0.5 16.5 0.5 16.5 0.5 13.5 L 0.5 3.5 C 0.5 0.5 0.5 0.5 3.5 0.5"></path><text x="8"  style="font-size:13px;font-family:'helvetica neue', 'arial', sans-serif;color:#333333;fill:#333333;" y="21"></text></g></svg>