<?xml version="1.0" standalone="no"?><!DOCTYPE svg PUBLIC "-//W3C//DTD SVG 1.1//EN" "http://www.w3.org/Graphics/SVG/1.1/DTD/svg11.dtd"><svg xmlns:xlink="http://www.w3.org/1999/xlink" version="1.1" style="font-family:'jaf-domus-titling-web', 'helvetica neue', 'arial', sans-serif;font-size:12px;" xmlns="http://www.w3.org/2000/svg" width="1100" height="550"><desc>Created with Highstock 4.2.3</desc><defs><clipPath id="highcharts-263"><rect x="0" y="0" width="1002" height="355"></rect></clipPath></defs><rect x="0" y="0" width="1100" height="550" fill="#FFFFFF" class=" highcharts-background"></rect><g class="highcharts-grid" ></g><g class="highcharts-grid" ><path fill="none" d="M 88 407.5 L 1090 407.5" stroke="#D8D8D8" stroke-width="1"  opacity="1"></path><path fill="none" d="M 88 336.5 L 1090 336.5" stroke="#D8D8D8" stroke-width="1"  opacity="1"></path><path fill="none" d="M 88 265.5 L 1090 265.5" stroke="#D8D8D8" stroke-width="1"  opacity="1"></path><path fill="none" d="M 88 194.5 L 1090 194.5" stroke="#D8D8D8" stroke-width="1"  opacity="1"></path><path fill="none" d="M 88 123.5 L 1090 123.5" stroke="#D8D8D8" stroke-width="1"  opacity="1"></path><path fill="none" d="M 88 51.5 L 1090 51.5" stroke="#D8D8D8" stroke-width="1"  opacity="1"></path></g><g class="highcharts-axis" ><path fill="none" d="M 122.5 407 L 122.5 417" stroke="#C0D0E0" stroke-width="1" opacity="1"></path><path fill="none" d="M 156.5 407 L 156.5 417" stroke="#C0D0E0" stroke-width="1" opacity="1"></path><path fill="none" d="M 191.5 407 L 191.5 417" stroke="#C0D0E0" stroke-width="1" opacity="1"></path><path fill="none" d="M 225.5 407 L 225.5 417" stroke="#C0D0E0" stroke-width="1" opacity="1"></path><path fill="none" d="M 260.5 407 L 260.5 417" stroke="#C0D0E0" stroke-width="1" opacity="1"></path><path fill="none" d="M 294.5 407 L 294.5 417" stroke="#C0D0E0" stroke-width="1" opacity="1"></path><path fill="none" d="M 329.5 407 L 329.5 417" stroke="#C0D0E0" stroke-width="1" opacity="1"></path><path fill="none" d="M 363.5 407 L 363.5 417" stroke="#C0D0E0" stroke-width="1" opacity="1"></path><path fill="none" d="M 398.5 407 L 398.5 417" stroke="#C0D0E0" stroke-width="1" opacity="1"></path><path fill="none" d="M 433.5 407 L 433.5 417" stroke="#C0D0E0" stroke-width="1" opacity="1"></path><path fill="none" d="M 467.5 407 L 467.5 417" stroke="#C0D0E0" stroke-width="1" opacity="1"></path><path fill="none" d="M 502.5 407 L 502.5 417" stroke="#C0D0E0" stroke-width="1" opacity="1"></path><path fill="none" d="M 536.5 407 L 536.5 417" stroke="#C0D0E0" stroke-width="1" opacity="1"></path><path fill="none" d="M 571.5 407 L 571.5 417" stroke="#C0D0E0" stroke-width="1" opacity="1"></path><path fill="none" d="M 605.5 407 L 605.5 417" stroke="#C0D0E0" stroke-width="1" opacity="1"></path><path fill="none" d="M 640.5 407 L 640.5 417" stroke="#C0D0E0" stroke-width="1" opacity="1"></path><path fill="none" d="M 674.5 407 L 674.5 417" stroke="#C0D0E0" stroke-width="1" opacity="1"></path><path fill="none" d="M 709.5 407 L 709.5 417" stroke="#C0D0E0" stroke-width="1" opacity="1"></path><path fill="none" d="M 743.5 407 L 743.5 417" stroke="#C0D0E0" stroke-width="1" opacity="1"></path><path fill="none" d="M 778.5 407 L 778.5 417" stroke="#C0D0E0" stroke-width="1" opacity="1"></path><path fill="none" d="M 813.5 407 L 813.5 417" stroke="#C0D0E0" stroke-width="1" opacity="1"></path><path fill="none" d="M 847.5 407 L 847.5 417" stroke="#C0D0E0" stroke-width="1" opacity="1"></path><path fill="none" d="M 882.5 407 L 882.5 417" stroke="#C0D0E0" stroke-width="1" opacity="1"></path><path fill="none" d="M 916.5 407 L 916.5 417" stroke="#C0D0E0" stroke-width="1" opacity="1"></path><path fill="none" d="M 951.5 407 L 951.5 417" stroke="#C0D0E0" stroke-width="1" opacity="1"></path><path fill="none" d="M 985.5 407 L 985.5 417" stroke="#C0D0E0" stroke-width="1" opacity="1"></path><path fill="none" d="M 1020.5 407 L 1020.5 417" stroke="#C0D0E0" stroke-width="1" opacity="1"></path><path fill="none" d="M 1054.5 407 L 1054.5 417" stroke="#C0D0E0" stroke-width="1" opacity="1"></path><path fill="none" d="M 1090.5 407 L 1090.5 417" stroke="#C0D0E0" stroke-width="1" opacity="1"></path><path fill="none" d="M 87.5 407 L 87.5 417" stroke="#C0D0E0" stroke-width="1" opacity="1"></path><path fill="none" d="M 88 407.5 L 1090 407.5" stroke="#C0D0E0" stroke-width="1" ></path></g><g class="highcharts-axis" ><text x="27"  text-anchor="middle" transform="translate(0,0) rotate(270 27 229.5)" class=" highcharts-yaxis-title" style="color:black;font-size:15px;font-family:'helvetica neue', 'arial', sans-serif;fill:black;" y="229.5">kL</text></g><g class="highcharts-series-group" ><g class="highcharts-series highcharts-series-0"  transform="translate(88,52) scale(1 1)" clip-path="url(#highcharts-263)"><rect x="5.5" y="307.5" width="23" height="48" stroke="#FFFFFF" stroke-width="1" fill="#9d69bf" rx="0" ry="0"></rect><rect x="40.5" y="353.5" width="23" height="2" stroke="#FFFFFF" stroke-width="1" fill="#9d69bf" rx="0" ry="0"></rect><rect x="74.5" y="319.5" width="23" height="36" stroke="#FFFFFF" stroke-width="1" fill="#9d69bf" rx="0" ry="0"></rect><rect x="109.5" y="349.5" width="23" height="6" stroke="#FFFFFF" stroke-width="1" fill="#9d69bf" rx="0" ry="0"></rect><rect x="143.5" y="333.5" width="23" height="22" stroke="#FFFFFF" stroke-width="1" fill="#9d69bf" rx="0" ry="0"></rect><rect x="178.5" y="312.5" width="23" height="43" stroke="#FFFFFF" stroke-width="1" fill="#9d69bf" rx="0" ry="0"></rect><rect x="213.5" y="352.5" width="23" height="3" stroke="#FFFFFF" stroke-width="1" fill="#9d69bf" rx="0" ry="0"></rect><rect x="247.5" y="354.5" width="23" height="1" stroke="#FFFFFF" stroke-width="1" fill="#9d69bf" rx="0" ry="0"></rect><rect x="282.5" y="342.5" width="23" height="13" stroke="#FFFFFF" stroke-width="1" fill="#9d69bf" rx="0" ry="0"></rect><rect x="316.5" y="342.5" width="23" height="13" stroke="#FFFFFF" stroke-width="1" fill="#9d69bf" rx="0" ry="0"></rect><rect x="351.5" y="353.5" width="23" height="2" stroke="#FFFFFF" stroke-width="1" fill="#9d69bf" rx="0" ry="0"></rect><rect x="385.5" y="349.5" width="23" height="6" stroke="#FFFFFF" stroke-width="1" fill="#9d69bf" rx="0" ry="0"></rect><rect x="420.5" y="321.5" width="23" height="34" stroke="#FFFFFF" stroke-width="1" fill="#9d69bf" rx="0" ry="0"></rect><rect x="454.5" y="334.5" width="23" height="21" stroke="#FFFFFF" stroke-width="1" fill="#9d69bf" rx="0" ry="0"></rect><rect x="489.5" y="352.5" width="23" height="3" stroke="#FFFFFF" stroke-width="1" fill="#9d69bf" rx="0" ry="0"></rect><rect x="523.5" y="333.5" width="23" height="22" stroke="#FFFFFF" stroke-width="1" fill="#9d69bf" rx="0" ry="0"></rect><rect x="558.5" y="344.5" width="23" height="11" stroke="#FFFFFF" stroke-width="1" fill="#9d69bf" rx="0" ry="0"></rect><rect x="593.5" y="329.5" width="23" height="26" stroke="#FFFFFF" stroke-width="1" fill="#9d69bf" rx="0" ry="0"></rect><rect x="627.5" y="281.5" width="23" height="74" stroke="#FFFFFF" stroke-width="1" fill="#9d69bf" rx="0" ry="0"></rect><rect x="662.5" y="319.5" width="23" height="36" stroke="#FFFFFF" stroke-width="1" fill="#9d69bf" rx="0" ry="0"></rect><rect x="696.5" y="333.5" width="23" height="22" stroke="#FFFFFF" stroke-width="1" fill="#9d69bf" rx="0" ry="0"></rect><rect x="731.5" y="349.5" width="23" height="6" stroke="#FFFFFF" stroke-width="1" fill="#9d69bf" rx="0" ry="0"></rect><rect x="765.5" y="297.5" width="23" height="58" stroke="#FFFFFF" stroke-width="1" fill="#9d69bf" rx="0" ry="0"></rect><rect x="800.5" y="-0.5" width="23" height="356" stroke="#FFFFFF" stroke-width="1" fill="#9d69bf" rx="0" ry="0"></rect><rect x="834.5" y="339.5" width="23" height="16" stroke="#FFFFFF" stroke-width="1" fill="#9d69bf" rx="0" ry="0"></rect><rect x="869.5" y="315.5" width="23" height="40" stroke="#FFFFFF" stroke-width="1" fill="#9d69bf" rx="0" ry="0"></rect><rect x="904.5" y="304.5" width="23" height="51" stroke="#FFFFFF" stroke-width="1" fill="#9d69bf" rx="0" ry="0"></rect><rect x="938.5" y="329.5" width="23" height="26" stroke="#FFFFFF" stroke-width="1" fill="#9d69bf" rx="0" ry="0"></rect><rect x="973.5" y="331.5" width="23" height="24" stroke="#FFFFFF" stroke-width="1" fill="#9d69bf" rx="0" ry="0"></rect></g><g class="highcharts-markers highcharts-series-0"  transform="translate(88,52) scale(1 1)" clip-path="none"></g></g><text x="550" text-anchor="middle" class="highcharts-title"  style="color:black;font-size:18px;fill:black;width:1036px;" y="24"><tspan>All Sectors - All Areas - Water - 2014-15</tspan></text><g class="highcharts-axis-labels highcharts-xaxis-labels" ><text x="108.33999145410723" style="color:black;cursor:default;font-size:13px;font-family:'helvetica neue', 'arial', sans-serif;fill:black;width:550px;text-overflow:ellipsis;" text-anchor="end" transform="translate(0,0) rotate(-45 108.33999145410723 424)" y="424" opacity="1"><tspan>Alexandria</tspan></text><text x="142.89171559203825" style="color:black;cursor:default;font-size:13px;font-family:'helvetica neue', 'arial', sans-serif;fill:black;width:550px;text-overflow:ellipsis;" text-anchor="end" transform="translate(0,0) rotate(-45 142.89171559203825 424)" y="424" opacity="1"><tspan>Beaconsfield</tspan></text><text x="177.4434397299693" style="color:black;cursor:default;font-size:13px;font-family:'helvetica neue', 'arial', sans-serif;fill:black;width:550px;text-overflow:ellipsis;" text-anchor="end" transform="translate(0,0) rotate(-45 177.4434397299693 424)" y="424" opacity="1"><tspan>Camperdown</tspan></text><text x="211.99516386790032" style="color:black;cursor:default;font-size:13px;font-family:'helvetica neue', 'arial', sans-serif;fill:black;width:550px;text-overflow:ellipsis;" text-anchor="end" transform="translate(0,0) rotate(-45 211.99516386790032 424)" y="424" opacity="1"><tspan>Centennial Park</tspan></text><text x="246.54688800583136" style="color:black;cursor:default;font-size:13px;font-family:'helvetica neue', 'arial', sans-serif;fill:black;width:550px;text-overflow:ellipsis;" text-anchor="end" transform="translate(0,0) rotate(-45 246.54688800583136 424)" y="424" opacity="1"><tspan>Chippendale</tspan></text><text x="281.09861214376235" style="color:black;cursor:default;font-size:13px;font-family:'helvetica neue', 'arial', sans-serif;fill:black;width:550px;text-overflow:ellipsis;" text-anchor="end" transform="translate(0,0) rotate(-45 281.09861214376235 424)" y="424" opacity="1"><tspan>Darlinghurst</tspan></text><text x="315.6503362816934" style="color:black;cursor:default;font-size:13px;font-family:'helvetica neue', 'arial', sans-serif;fill:black;width:550px;text-overflow:ellipsis;" text-anchor="end" transform="translate(0,0) rotate(-45 315.6503362816934 424)" y="424" opacity="1"><tspan>Darlington</tspan></text><text x="350.20206041962444" style="color:black;cursor:default;font-size:13px;font-family:'helvetica neue', 'arial', sans-serif;fill:black;width:550px;text-overflow:ellipsis;" text-anchor="end" transform="translate(0,0) rotate(-45 350.20206041962444 424)" y="424" opacity="1"><tspan>Dawes Point</tspan></text><text x="384.7537845575555" style="color:black;cursor:default;font-size:13px;font-family:'helvetica neue', 'arial', sans-serif;fill:black;width:550px;text-overflow:ellipsis;" text-anchor="end" transform="translate(0,0) rotate(-45 384.7537845575555 424)" y="424" opacity="1"><tspan>Elizabeth Bay</tspan></text><text x="419.30550869548654" style="color:black;cursor:default;font-size:13px;font-family:'helvetica neue', 'arial', sans-serif;fill:black;width:550px;text-overflow:ellipsis;" text-anchor="end" transform="translate(0,0) rotate(-45 419.30550869548654 424)" y="424" opacity="1"><tspan>Erskineville</tspan></text><text x="453.8572328334175" style="color:black;cursor:default;font-size:13px;font-family:'helvetica neue', 'arial', sans-serif;fill:black;width:550px;text-overflow:ellipsis;" text-anchor="end" transform="translate(0,0) rotate(-45 453.8572328334175 424)" y="424" opacity="1"><tspan>Eveleigh</tspan></text><text x="488.4089569713486" style="color:black;cursor:default;font-size:13px;font-family:'helvetica neue', 'arial', sans-serif;fill:black;width:550px;text-overflow:ellipsis;" text-anchor="end" transform="translate(0,0) rotate(-45 488.4089569713486 424)" y="424" opacity="1"><tspan>Forest Lodge + Annandale</tspan></text><text x="522.9606811092797" style="color:black;cursor:default;font-size:13px;font-family:'helvetica neue', 'arial', sans-serif;fill:black;width:550px;text-overflow:ellipsis;" text-anchor="end" transform="translate(0,0) rotate(-45 522.9606811092797 424)" y="424" opacity="1"><tspan>Glebe</tspan></text><text x="557.5124052472106" style="color:black;cursor:default;font-size:13px;font-family:'helvetica neue', 'arial', sans-serif;fill:black;width:550px;text-overflow:ellipsis;" text-anchor="end" transform="translate(0,0) rotate(-45 557.5124052472106 424)" y="424" opacity="1"><tspan>Haymarket</tspan></text><text x="592.0641293851417" style="color:black;cursor:default;font-size:13px;font-family:'helvetica neue', 'arial', sans-serif;fill:black;width:550px;text-overflow:ellipsis;" text-anchor="end" transform="translate(0,0) rotate(-45 592.0641293851417 424)" y="424" opacity="1"><tspan>Millers Point + Barangaroo</tspan></text><text x="626.6158535230727" style="color:black;cursor:default;font-size:13px;font-family:'helvetica neue', 'arial', sans-serif;fill:black;width:550px;text-overflow:ellipsis;" text-anchor="end" transform="translate(0,0) rotate(-45 626.6158535230727 424)" y="424" opacity="1"><tspan>Newtown + St Peters</tspan></text><text x="661.1675776610036" style="color:black;cursor:default;font-size:13px;font-family:'helvetica neue', 'arial', sans-serif;fill:black;width:550px;text-overflow:ellipsis;" text-anchor="end" transform="translate(0,0) rotate(-45 661.1675776610036 424)" y="424" opacity="1"><tspan>Paddington</tspan></text><text x="695.7193017989347" style="color:black;cursor:default;font-size:13px;font-family:'helvetica neue', 'arial', sans-serif;fill:black;width:550px;text-overflow:ellipsis;" text-anchor="end" transform="translate(0,0) rotate(-45 695.7193017989347 424)" y="424" opacity="1"><tspan>Potts Point</tspan></text><text x="730.2710259368657" style="color:black;cursor:default;font-size:13px;font-family:'helvetica neue', 'arial', sans-serif;fill:black;width:550px;text-overflow:ellipsis;" text-anchor="end" transform="translate(0,0) rotate(-45 730.2710259368657 424)" y="424" opacity="1"><tspan>Pyrmont</tspan></text><text x="764.8227500747968" style="color:black;cursor:default;font-size:13px;font-family:'helvetica neue', 'arial', sans-serif;fill:black;width:550px;text-overflow:ellipsis;" text-anchor="end" transform="translate(0,0) rotate(-45 764.8227500747968 424)" y="424" opacity="1"><tspan>Redfern</tspan></text><text x="799.3744742127278" style="color:black;cursor:default;font-size:13px;font-family:'helvetica neue', 'arial', sans-serif;fill:black;width:550px;text-overflow:ellipsis;" text-anchor="end" transform="translate(0,0) rotate(-45 799.3744742127278 424)" y="424" opacity="1"><tspan>Rosebery</tspan></text><text x="833.9261983506589" style="color:black;cursor:default;font-size:13px;font-family:'helvetica neue', 'arial', sans-serif;fill:black;width:550px;text-overflow:ellipsis;" text-anchor="end" transform="translate(0,0) rotate(-45 833.9261983506589 424)" y="424" opacity="1"><tspan>Rushcutters Bay</tspan></text><text x="868.4779224885899" style="color:black;cursor:default;font-size:13px;font-family:'helvetica neue', 'arial', sans-serif;fill:black;width:550px;text-overflow:ellipsis;" text-anchor="end" transform="translate(0,0) rotate(-45 868.4779224885899 424)" y="424" opacity="1"><tspan>Surry Hills</tspan></text><text x="903.029646626521" style="color:black;cursor:default;font-size:13px;font-family:'helvetica neue', 'arial', sans-serif;fill:black;width:550px;text-overflow:ellipsis;" text-anchor="end" transform="translate(0,0) rotate(-45 903.029646626521 424)" y="424" opacity="1"><tspan>Sydney</tspan></text><text x="937.5813707644519" style="color:black;cursor:default;font-size:13px;font-family:'helvetica neue', 'arial', sans-serif;fill:black;width:550px;text-overflow:ellipsis;" text-anchor="end" transform="translate(0,0) rotate(-45 937.5813707644519 424)" y="424" opacity="1"><tspan>The Rocks</tspan></text><text x="972.1330949023829" style="color:black;cursor:default;font-size:13px;font-family:'helvetica neue', 'arial', sans-serif;fill:black;width:550px;text-overflow:ellipsis;" text-anchor="end" transform="translate(0,0) rotate(-45 972.1330949023829 424)" y="424" opacity="1"><tspan>Ultimo</tspan></text><text x="1006.684819040314" style="color:black;cursor:default;font-size:13px;font-family:'helvetica neue', 'arial', sans-serif;fill:black;width:550px;text-overflow:ellipsis;" text-anchor="end" transform="translate(0,0) rotate(-45 1006.684819040314 424)" y="424" opacity="1"><tspan>Waterloo + Moore Park</tspan></text><text x="1041.236543178245" style="color:black;cursor:default;font-size:13px;font-family:'helvetica neue', 'arial', sans-serif;fill:black;width:550px;text-overflow:ellipsis;" text-anchor="end" transform="translate(0,0) rotate(-45 1041.236543178245 424)" y="424" opacity="1"><tspan>Woolloomooloo</tspan></text><text x="1075.7882673161762" style="color:black;cursor:default;font-size:13px;font-family:'helvetica neue', 'arial', sans-serif;fill:black;width:550px;text-overflow:ellipsis;" text-anchor="end" transform="translate(0,0) rotate(-45 1075.7882673161762 424)" y="424" opacity="1"><tspan>Zetland</tspan></text></g><g class="highcharts-axis-labels highcharts-yaxis-labels" ><text x="73" style="color:black;cursor:default;font-size:13px;font-family:'helvetica neue', 'arial', sans-serif;fill:black;width:353px;text-overflow:clip;" text-anchor="end" transform="translate(0,0)" y="413" opacity="1">0M</text><text x="73" style="color:black;cursor:default;font-size:13px;font-family:'helvetica neue', 'arial', sans-serif;fill:black;width:353px;text-overflow:clip;" text-anchor="end" transform="translate(0,0)" y="129" opacity="1">10M</text><text x="73" style="color:black;cursor:default;font-size:13px;font-family:'helvetica neue', 'arial', sans-serif;fill:black;width:353px;text-overflow:clip;" text-anchor="end" transform="translate(0,0)" y="342" opacity="1">2.5M</text><text x="73" style="color:black;cursor:default;font-size:13px;font-family:'helvetica neue', 'arial', sans-serif;fill:black;width:353px;text-overflow:clip;" text-anchor="end" transform="translate(0,0)" y="271" opacity="1">5M</text><text x="73" style="color:black;cursor:default;font-size:13px;font-family:'helvetica neue', 'arial', sans-serif;fill:black;width:353px;text-overflow:clip;" text-anchor="end" transform="translate(0,0)" y="200" opacity="1">7.5M</text><text x="73" style="color:black;cursor:default;font-size:13px;font-family:'helvetica neue', 'arial', sans-serif;fill:black;width:353px;text-overflow:clip;" text-anchor="end" transform="translate(0,0)" y="58" opacity="1">12.5M</text></g><g class="highcharts-tooltip"  style="cursor:default;padding:0;pointer-events:none;white-space:nowrap;" transform="translate(0,-9999)"><path fill="none" d="M 3.5 0.5 L 13.5 0.5 C 16.5 0.5 16.5 0.5 16.5 3.5 L 16.5 13.5 C 16.5 16.5 16.5 16.5 13.5 16.5 L 3.5 16.5 C 0.5 16.5 0.5 16.5 0.5 13.5 L 0.5 3.5 C 0.5 0.5 0.5 0.5 3.5 0.5"  stroke="black" stroke-opacity="0.049999999999999996" stroke-width="5" transform="translate(1, 1)"></path><path fill="none" d="M 3.5 0.5 L 13.5 0.5 C 16.5 0.5 16.5 0.5 16.5 3.5 L 16.5 13.5 C 16.5 16.5 16.5 16.5 13.5 16.5 L 3.5 16.5 C 0.5 16.5 0.5 16.5 0.5 13.5 L 0.5 3.5 C 0.5 0.5 0.5 0.5 3.5 0.5"  stroke="black" stroke-opacity="0.09999999999999999" stroke-width="3" transform="translate(1, 1)"></path><path fill="none" d="M 3.5 0.5 L 13.5 0.5 C 16.5 0.5 16.5 0.5 16.5 3.5 L 16.5 13.5 C 16.5 16.5 16.5 16.5 13.5 16.5 L 3.5 16.5 C 0.5 16.5 0.5 16.5 0.5 13.5 L 0.5 3.5 C 0.5 0.5 0.5 0.5 3.5 0.5"  stroke="black" stroke-opacity="0.15" stroke-width="1" transform="translate(1, 1)"></path><path fill="rgb(249, 249, 249)" fill-opacity=" .85" d="M 3.5 0.5 L 13.5 0.5 C 16.5 0.5 16.5 0.5 16.5 3.5 L 16.5 13.5 C 16.5 16.5 16.5 16.5 13.5 16.5 L 3.5 16.5 C 0.5 16.5 0.5 16.5 0.5 13.5 L 0.5 3.5 C 0.5 0.5 0.5 0.5 3.5 0.5"></path><text x="8"  style="font-size:13px;font-family:'helvetica neue', 'arial', sans-serif;color:#333333;fill:#333333;" y="21"></text></g></svg>