<?xml version="1.0" standalone="no"?><!DOCTYPE svg PUBLIC "-//W3C//DTD SVG 1.1//EN" "http://www.w3.org/Graphics/SVG/1.1/DTD/svg11.dtd"><svg xmlns:xlink="http://www.w3.org/1999/xlink" version="1.1" style="font-family:'jaf-domus-titling-web', 'helvetica neue', 'arial', sans-serif;font-size:12px;" xmlns="http://www.w3.org/2000/svg" width="1100" height="550"><desc>Created with Highstock 4.2.3</desc><defs><clipPath id="highcharts-86"><rect x="0" y="0" width="1013" height="422"></rect></clipPath></defs><rect x="0" y="0" width="1100" height="550" fill="#FFFFFF" class=" highcharts-background"></rect><g class="highcharts-grid" ></g><g class="highcharts-grid" ><path fill="none" d="M 77 474.5 L 1090 474.5" stroke="#D8D8D8" stroke-width="1"  opacity="1"></path><path fill="none" d="M 77 421.5 L 1090 421.5" stroke="#D8D8D8" stroke-width="1"  opacity="1"></path><path fill="none" d="M 77 369.5 L 1090 369.5" stroke="#D8D8D8" stroke-width="1"  opacity="1"></path><path fill="none" d="M 77 316.5 L 1090 316.5" stroke="#D8D8D8" stroke-width="1"  opacity="1"></path><path fill="none" d="M 77 263.5 L 1090 263.5" stroke="#D8D8D8" stroke-width="1"  opacity="1"></path><path fill="none" d="M 77 210.5 L 1090 210.5" stroke="#D8D8D8" stroke-width="1"  opacity="1"></path><path fill="none" d="M 77 158.5 L 1090 158.5" stroke="#D8D8D8" stroke-width="1"  opacity="1"></path><path fill="none" d="M 77 105.5 L 1090 105.5" stroke="#D8D8D8" stroke-width="1"  opacity="1"></path><path fill="none" d="M 77 51.5 L 1090 51.5" stroke="#D8D8D8" stroke-width="1"  opacity="1"></path></g><g class="highcharts-axis" ><path fill="none" d="M 177.5 474 L 177.5 484" stroke="#C0D0E0" stroke-width="1" opacity="1"></path><path fill="none" d="M 279.5 474 L 279.5 484" stroke="#C0D0E0" stroke-width="1" opacity="1"></path><path fill="none" d="M 380.5 474 L 380.5 484" stroke="#C0D0E0" stroke-width="1" opacity="1"></path><path fill="none" d="M 481.5 474 L 481.5 484" stroke="#C0D0E0" stroke-width="1" opacity="1"></path><path fill="none" d="M 583.5 474 L 583.5 484" stroke="#C0D0E0" stroke-width="1" opacity="1"></path><path fill="none" d="M 684.5 474 L 684.5 484" stroke="#C0D0E0" stroke-width="1" opacity="1"></path><path fill="none" d="M 785.5 474 L 785.5 484" stroke="#C0D0E0" stroke-width="1" opacity="1"></path><path fill="none" d="M 886.5 474 L 886.5 484" stroke="#C0D0E0" stroke-width="1" opacity="1"></path><path fill="none" d="M 988.5 474 L 988.5 484" stroke="#C0D0E0" stroke-width="1" opacity="1"></path><path fill="none" d="M 1090.5 474 L 1090.5 484" stroke="#C0D0E0" stroke-width="1" opacity="1"></path><path fill="none" d="M 76.5 474 L 76.5 484" stroke="#C0D0E0" stroke-width="1" opacity="1"></path><path fill="none" d="M 77 474.5 L 1090 474.5" stroke="#C0D0E0" stroke-width="1" ></path></g><g class="highcharts-axis" ><text x="27"  text-anchor="middle" transform="translate(0,0) rotate(270 27 263)" class=" highcharts-yaxis-title" style="color:black;font-size:15px;font-family:'helvetica neue', 'arial', sans-serif;fill:black;" y="263">kL</text></g><g class="highcharts-series-group" ><g class="highcharts-series highcharts-series-0"  transform="translate(77,52) scale(1 1)" clip-path="url(#highcharts-86)"><rect x="17.5" y="69.5" width="65" height="207" stroke="#FFFFFF" stroke-width="1" fill="#69bfbf" rx="0" ry="0"></rect><rect x="119.5" y="64.5" width="65" height="210" stroke="#FFFFFF" stroke-width="1" fill="#69bfbf" rx="0" ry="0"></rect><rect x="220.5" y="85.5" width="65" height="193" stroke="#FFFFFF" stroke-width="1" fill="#69bfbf" rx="0" ry="0"></rect><rect x="321.5" y="85.5" width="65" height="189" stroke="#FFFFFF" stroke-width="1" fill="#69bfbf" rx="0" ry="0"></rect><rect x="422.5" y="71.5" width="65" height="191" stroke="#FFFFFF" stroke-width="1" fill="#69bfbf" rx="0" ry="0"></rect><rect x="524.5" y="68.5" width="65" height="190" stroke="#FFFFFF" stroke-width="1" fill="#69bfbf" rx="0" ry="0"></rect><rect x="625.5" y="68.5" width="65" height="189" stroke="#FFFFFF" stroke-width="1" fill="#69bfbf" rx="0" ry="0"></rect><rect x="726.5" y="61.5" width="65" height="192" stroke="#FFFFFF" stroke-width="1" fill="#69bfbf" rx="0" ry="0"></rect><rect x="828.5" y="50.5" width="65" height="198" stroke="#FFFFFF" stroke-width="1" fill="#69bfbf" rx="0" ry="0"></rect><rect x="929.5" y="43.5" width="65" height="201" stroke="#FFFFFF" stroke-width="1" fill="#69bfbf" rx="0" ry="0"></rect></g><g class="highcharts-markers highcharts-series-0"  transform="translate(77,52) scale(1 1)" clip-path="none"></g><g class="highcharts-series highcharts-series-1"  transform="translate(77,52) scale(1 1)" clip-path="url(#highcharts-86)"><rect x="17.5" y="276.5" width="65" height="146" stroke="#FFFFFF" stroke-width="1" fill="#bfa569" rx="0" ry="0"></rect><rect x="119.5" y="274.5" width="65" height="148" stroke="#FFFFFF" stroke-width="1" fill="#bfa569" rx="0" ry="0"></rect><rect x="220.5" y="278.5" width="65" height="144" stroke="#FFFFFF" stroke-width="1" fill="#bfa569" rx="0" ry="0"></rect><rect x="321.5" y="274.5" width="65" height="148" stroke="#FFFFFF" stroke-width="1" fill="#bfa569" rx="0" ry="0"></rect><rect x="422.5" y="262.5" width="65" height="160" stroke="#FFFFFF" stroke-width="1" fill="#bfa569" rx="0" ry="0"></rect><rect x="524.5" y="258.5" width="65" height="164" stroke="#FFFFFF" stroke-width="1" fill="#bfa569" rx="0" ry="0"></rect><rect x="625.5" y="257.5" width="65" height="165" stroke="#FFFFFF" stroke-width="1" fill="#bfa569" rx="0" ry="0"></rect><rect x="726.5" y="253.5" width="65" height="169" stroke="#FFFFFF" stroke-width="1" fill="#bfa569" rx="0" ry="0"></rect><rect x="828.5" y="248.5" width="65" height="174" stroke="#FFFFFF" stroke-width="1" fill="#bfa569" rx="0" ry="0"></rect><rect x="929.5" y="244.5" width="65" height="178" stroke="#FFFFFF" stroke-width="1" fill="#bfa569" rx="0" ry="0"></rect></g><g class="highcharts-markers highcharts-series-1"  transform="translate(77,52) scale(1 1)" clip-path="none"></g></g><text x="550" text-anchor="middle" class="highcharts-title"  style="color:black;font-size:18px;fill:black;width:1036px;" y="24"><tspan>City of Sydney - Potable water consumption (2005_06 – 2014_15)</tspan></text><g class="highcharts-legend"  transform="translate(406,509)"><g ><g><g class="highcharts-legend-item"  transform="translate(8,3)"><text x="21" style="color:black;font-size:13px;font-weight:normal;cursor:pointer;font-family:'helvetica neue', 'arial', sans-serif;fill:black;" text-anchor="start"  y="16"><tspan>All - Non-Residential</tspan></text><rect x="0" y="4" width="16" height="13"  fill="#69bfbf"></rect></g><g class="highcharts-legend-item"  transform="translate(168,3)"><text x="21" y="16" style="color:black;font-size:13px;font-weight:normal;cursor:pointer;font-family:'helvetica neue', 'arial', sans-serif;fill:black;" text-anchor="start" ><tspan>All - Residential</tspan></text><rect x="0" y="4" width="16" height="13"  fill="#bfa569"></rect></g></g></g></g><g class="highcharts-axis-labels highcharts-xaxis-labels" ><text x="127.65" style="color:black;cursor:default;font-size:13px;font-family:'helvetica neue', 'arial', sans-serif;fill:black;width:98px;text-overflow:clip;" text-anchor="middle" transform="translate(0,0)" y="495" opacity="1">2005-06</text><text x="228.95000000000002" style="color:black;cursor:default;font-size:13px;font-family:'helvetica neue', 'arial', sans-serif;fill:black;width:98px;text-overflow:clip;" text-anchor="middle" transform="translate(0,0)" y="495" opacity="1">2006-07</text><text x="330.25" style="color:black;cursor:default;font-size:13px;font-family:'helvetica neue', 'arial', sans-serif;fill:black;width:98px;text-overflow:clip;" text-anchor="middle" transform="translate(0,0)" y="495" opacity="1">2007-08</text><text x="431.55" style="color:black;cursor:default;font-size:13px;font-family:'helvetica neue', 'arial', sans-serif;fill:black;width:98px;text-overflow:clip;" text-anchor="middle" transform="translate(0,0)" y="495" opacity="1">2008-09</text><text x="532.85" style="color:black;cursor:default;font-size:13px;font-family:'helvetica neue', 'arial', sans-serif;fill:black;width:98px;text-overflow:clip;" text-anchor="middle" transform="translate(0,0)" y="495" opacity="1">2009-10</text><text x="634.15" style="color:black;cursor:default;font-size:13px;font-family:'helvetica neue', 'arial', sans-serif;fill:black;width:98px;text-overflow:clip;" text-anchor="middle" transform="translate(0,0)" y="495" opacity="1">2010-11</text><text x="735.4499999999999" style="color:black;cursor:default;font-size:13px;font-family:'helvetica neue', 'arial', sans-serif;fill:black;width:98px;text-overflow:clip;" text-anchor="middle" transform="translate(0,0)" y="495" opacity="1">2011-12</text><text x="836.75" style="color:black;cursor:default;font-size:13px;font-family:'helvetica neue', 'arial', sans-serif;fill:black;width:98px;text-overflow:clip;" text-anchor="middle" transform="translate(0,0)" y="495" opacity="1">2012-13</text><text x="938.05" style="color:black;cursor:default;font-size:13px;font-family:'helvetica neue', 'arial', sans-serif;fill:black;width:98px;text-overflow:clip;" text-anchor="middle" transform="translate(0,0)" y="495" opacity="1">2013-14</text><text x="1039.35" style="color:black;cursor:default;font-size:13px;font-family:'helvetica neue', 'arial', sans-serif;fill:black;width:98px;text-overflow:clip;" text-anchor="middle" transform="translate(0,0)" y="495" opacity="1">2014-15</text></g><g class="highcharts-axis-labels highcharts-yaxis-labels" ><text x="62" style="color:black;cursor:default;font-size:13px;font-family:'helvetica neue', 'arial', sans-serif;fill:black;width:353px;text-overflow:clip;" text-anchor="end" transform="translate(0,0)" y="480" opacity="1">0M</text><text x="62" style="color:black;cursor:default;font-size:13px;font-family:'helvetica neue', 'arial', sans-serif;fill:black;width:353px;text-overflow:clip;" text-anchor="end" transform="translate(0,0)" y="427" opacity="1">5M</text><text x="62" style="color:black;cursor:default;font-size:13px;font-family:'helvetica neue', 'arial', sans-serif;fill:black;width:353px;text-overflow:clip;" text-anchor="end" transform="translate(0,0)" y="374" opacity="1">10M</text><text x="62" style="color:black;cursor:default;font-size:13px;font-family:'helvetica neue', 'arial', sans-serif;fill:black;width:353px;text-overflow:clip;" text-anchor="end" transform="translate(0,0)" y="321" opacity="1">15M</text><text x="62" style="color:black;cursor:default;font-size:13px;font-family:'helvetica neue', 'arial', sans-serif;fill:black;width:353px;text-overflow:clip;" text-anchor="end" transform="translate(0,0)" y="269" opacity="1">20M</text><text x="62" style="color:black;cursor:default;font-size:13px;font-family:'helvetica neue', 'arial', sans-serif;fill:black;width:353px;text-overflow:clip;" text-anchor="end" transform="translate(0,0)" y="216" opacity="1">25M</text><text x="62" style="color:black;cursor:default;font-size:13px;font-family:'helvetica neue', 'arial', sans-serif;fill:black;width:353px;text-overflow:clip;" text-anchor="end" transform="translate(0,0)" y="163" opacity="1">30M</text><text x="62" style="color:black;cursor:default;font-size:13px;font-family:'helvetica neue', 'arial', sans-serif;fill:black;width:353px;text-overflow:clip;" text-anchor="end" transform="translate(0,0)" y="110" opacity="1">35M</text><text x="62" style="color:black;cursor:default;font-size:13px;font-family:'helvetica neue', 'arial', sans-serif;fill:black;width:353px;text-overflow:clip;" text-anchor="end" transform="translate(0,0)" y="58" opacity="1">40M</text></g><g class="highcharts-tooltip"  style="cursor:default;padding:0;pointer-events:none;white-space:nowrap;" transform="translate(0,-9999)"><path fill="none" d="M 3.5 0.5 L 13.5 0.5 C 16.5 0.5 16.5 0.5 16.5 3.5 L 16.5 13.5 C 16.5 16.5 16.5 16.5 13.5 16.5 L 3.5 16.5 C 0.5 16.5 0.5 16.5 0.5 13.5 L 0.5 3.5 C 0.5 0.5 0.5 0.5 3.5 0.5"  stroke="black" stroke-opacity="0.049999999999999996" stroke-width="5" transform="translate(1, 1)"></path><path fill="none" d="M 3.5 0.5 L 13.5 0.5 C 16.5 0.5 16.5 0.5 16.5 3.5 L 16.5 13.5 C 16.5 16.5 16.5 16.5 13.5 16.5 L 3.5 16.5 C 0.5 16.5 0.5 16.5 0.5 13.5 L 0.5 3.5 C 0.5 0.5 0.5 0.5 3.5 0.5"  stroke="black" stroke-opacity="0.09999999999999999" stroke-width="3" transform="translate(1, 1)"></path><path fill="none" d="M 3.5 0.5 L 13.5 0.5 C 16.5 0.5 16.5 0.5 16.5 3.5 L 16.5 13.5 C 16.5 16.5 16.5 16.5 13.5 16.5 L 3.5 16.5 C 0.5 16.5 0.5 16.5 0.5 13.5 L 0.5 3.5 C 0.5 0.5 0.5 0.5 3.5 0.5"  stroke="black" stroke-opacity="0.15" stroke-width="1" transform="translate(1, 1)"></path><path fill="rgb(249, 249, 249)" fill-opacity=" .85" d="M 3.5 0.5 L 13.5 0.5 C 16.5 0.5 16.5 0.5 16.5 3.5 L 16.5 13.5 C 16.5 16.5 16.5 16.5 13.5 16.5 L 3.5 16.5 C 0.5 16.5 0.5 16.5 0.5 13.5 L 0.5 3.5 C 0.5 0.5 0.5 0.5 3.5 0.5"></path><text x="8"  style="font-size:13px;font-family:'helvetica neue', 'arial', sans-serif;color:#333333;fill:#333333;" y="21"></text></g></svg>