<?xml version="1.0" standalone="no"?><!DOCTYPE svg PUBLIC "-//W3C//DTD SVG 1.1//EN" "http://www.w3.org/Graphics/SVG/1.1/DTD/svg11.dtd"><svg xmlns:xlink="http://www.w3.org/1999/xlink" version="1.1" style="font-family:'jaf-domus-titling-web', 'helvetica neue', 'arial', sans-serif;font-size:12px;" xmlns="http://www.w3.org/2000/svg" width="1100" height="550"><desc>Created with Highstock 4.2.3</desc><defs><clipPath id="highcharts-298"><rect x="0" y="0" width="1080" height="483"></rect></clipPath></defs><rect x="0" y="0" width="1100" height="550" fill="#FFFFFF" class=" highcharts-background"></rect><g class="highcharts-series-group" ><g class="highcharts-series highcharts-series-0"  transform="translate(10,52) scale(1 1)"><path fill="#69b2bf" d="M 574.9598763788721 45.00000408605328 A 197 197 0 0 1 752.3880791634774 327.6882102199123 L 575 242 A 0 0 0 0 0 575 242 Z" stroke="#FFFFFF" stroke-width="1" stroke-linejoin="round" transform="translate(0,0)"></path><path fill="#bfb269" d="M 752.3023022735066 327.86555542540964 A 197 197 0 0 1 457.95321285400325 400.4583529473903 L 575 242 A 0 0 0 0 0 575 242 Z" stroke="#FFFFFF" stroke-width="1" stroke-linejoin="round" transform="translate(0,0)"></path><path fill="#9969bf" d="M 457.79481305085426 400.34122695058227 A 197 197 0 0 1 381.3401163687521 205.87729976965275 L 575 242 A 0 0 0 0 0 575 242 Z" stroke="#FFFFFF" stroke-width="1" stroke-linejoin="round" transform="translate(0,0)"></path><path fill="#69bf80" d="M 381.3763358928958 205.6836579796468 A 197 197 0 0 1 431.18097549827405 107.3705522875031 L 575 242 A 0 0 0 0 0 575 242 Z" stroke="#FFFFFF" stroke-width="1" stroke-linejoin="round" transform="translate(0,0)"></path><path fill="#bf696c" d="M 431.3156768330545 107.22680060168946 A 197 197 0 0 1 463.2150544669712 79.78678860161304 L 575 242 A 0 0 0 0 0 575 242 Z" stroke="#FFFFFF" stroke-width="1" stroke-linejoin="round" transform="translate(0,0)"></path><path fill="#6984bf" d="M 463.37732354380216 79.67508478130972 A 197 197 0 0 1 499.8498724836257 59.89712156510902 L 575 242 A 0 0 0 0 0 575 242 Z" stroke="#FFFFFF" stroke-width="1" stroke-linejoin="round" transform="translate(0,0)"></path><path fill="#9ebf69" d="M 500.0320129067708 59.82206250154928 A 197 197 0 0 1 529.6303206856343 50.29556030464079 L 575 242 A 0 0 0 0 0 575 242 Z" stroke="#FFFFFF" stroke-width="1" stroke-linejoin="round" transform="translate(0,0)"></path><path fill="#bf69b7" d="M 529.8220477782168 50.25028648509988 A 197 197 0 0 1 553.1017203359069 46.22087611863935 L 575 242 A 0 0 0 0 0 575 242 Z" stroke="#FFFFFF" stroke-width="1" stroke-linejoin="round" transform="translate(0,0)"></path><path fill="#69bfae" d="M 553.2975103762973 46.19907573217873 A 197 197 0 0 1 567.4392282525203 45.1451429845265 L 575 242 A 0 0 0 0 0 575 242 Z" stroke="#FFFFFF" stroke-width="1" stroke-linejoin="round" transform="translate(0,0)"></path><path fill="#bf9669" d="M 567.6360868571122 45.13768064145947 A 197 197 0 0 1 574.7263709521999 45.00019003272058 L 575 242 A 0 0 0 0 0 575 242 Z" stroke="#FFFFFF" stroke-width="1" stroke-linejoin="round" transform="translate(0,0)"></path></g><g class="highcharts-markers highcharts-series-0"  transform="translate(10,52) scale(1 1)"></g></g><text x="550" text-anchor="middle" class="highcharts-title"  style="color:black;font-size:18px;fill:black;width:1036px;" y="24"><tspan>City of Sydney - Potable water consumption by sector (2005_06)</tspan></text><g class="highcharts-data-labels highcharts-series-0"  visibility="visible" transform="translate(10,52) scale(1 1)" opacity="1"><path fill="none" d="M 771.8609801603441 120.97509256692321 C 766.8609801603441 120.97509256692321 760.0817385687901 125.2226663971638 750.7602813804034 131.06308041374461 L 741.4388241920167 136.90349443032542" stroke="#69b2bf" stroke-width="1"></path><path fill="none" d="M 633.72265409788 461.92890868164653 C 628.72265409788 461.92890868164653 626.8117235569854 454.16048899242554 624.1841940632555 443.4789119197466 L 621.5566645695257 432.7973348470677" stroke="#bfb269" stroke-width="1"></path><path fill="none" d="M 358.2242823630971 324.5154873322542 C 363.2242823630971 324.5154873322542 370.670122632239 321.5898313910294 380.9081530023092 317.56705447184527 L 391.14618337237937 313.54427755266113" stroke="#9969bf" stroke-width="1"></path><path fill="none" d="M 353.8892396006173 170.5 C 358.8892396006173 170.5 379.1809150837511 142.4472107031855 388.9914627279462 147.42246496010313 L 398.80201037214135 152.39771921702075" stroke="#69bf80" stroke-width="1"></path><path fill="none" d="M 364.2684234821552 144.5 C 369.2684234821552 144.5 431.78797589260995 75.384744303325 438.95615975188525 83.72843294562374 L 446.12434361116055 92.07212158792248" stroke="#bf696c" stroke-width="1"></path><path fill="none" d="M 378.71215971661087 118.5 C 383.71215971661087 118.5 470.2361766426993 48.91221446073581 475.47317233644503 58.58557355174908 L 480.71016803019074 68.25893264276235" stroke="#6984bf" stroke-width="1"></path><path fill="none" d="M 398.2458029711388 92.5 C 403.2458029711388 92.5 507.57830929695956 32.97545153280733 510.9396727569296 43.449287300565864 L 514.3010362168997 53.9231230683244" stroke="#9ebf69" stroke-width="1"></path><path fill="none" d="M 424.9178434245774 66.5 C 429.9178434245774 66.5 537.3347516425132 25.676589975678695 539.2014992769075 36.51703522804186 L 541.0682469113018 47.35748048040503" stroke="#bf69b7" stroke-width="1"></path><path fill="none" d="M 464.01066404607525 40.5 C 469.01066404607525 40.5 558.3958088524083 23.09291442931199 559.2046951657577 34.063133339255224 L 560.0135814791071 45.03335224919846" stroke="#69bfae" stroke-width="1"></path><path fill="none" d="M 565.2714801737047 14.5 C 570.2714801737047 14.5 570.4205028988587 22.53799940765569 570.625409145948 33.53609076160906 L 570.8303153930373 44.53418211556243" stroke="#bf9669" stroke-width="1"></path><g  style="cursor:pointer;" transform="translate(777,111)"><text x="5"  style="font-size:11px;font-weight:bold;color:#000000;text-shadow:0 0 6px #ffffff, 0 0 3px #ffffff;fill:#000000;text-rendering:geometricprecision;" y="16"><tspan style="font-weight:bold">Residential - Apartments</tspan><tspan dx="0">: 32.18 %</tspan></text></g><g  style="cursor:pointer;" transform="translate(639,452)"><text x="5"  style="font-size:11px;font-weight:bold;color:#000000;text-shadow:0 0 6px #ffffff, 0 0 3px #ffffff;fill:#000000;text-rendering:geometricprecision;" y="16"><tspan style="font-weight:bold">Non-Residential - Commercial Office</tspan><tspan dx="0">: 27.96 %</tspan></text></g><g  style="cursor:pointer;" transform="translate(0,315)"><text x="5"  style="font-size:11px;font-weight:bold;color:#000000;text-shadow:0 0 6px #ffffff, 0 0 3px #ffffff;fill:#000000;text-rendering:geometricprecision;" y="16"><tspan style="font-weight:bold">Non-Residential - Accommodation/Entertainment</tspan><tspan dx="0">: 17.81 %</tspan></text></g><g  style="cursor:pointer;" transform="translate(127,161)"><text x="5"  style="font-size:11px;font-weight:bold;color:#000000;text-shadow:0 0 6px #ffffff, 0 0 3px #ffffff;fill:#000000;text-rendering:geometricprecision;" y="16"><tspan style="font-weight:bold">Residential - Single Dwelling</tspan><tspan dx="0">: 9.05 %</tspan></text></g><g  style="cursor:pointer;" transform="translate(167,135)"><text x="5"  style="font-size:11px;font-weight:bold;color:#000000;text-shadow:0 0 6px #ffffff, 0 0 3px #ffffff;fill:#000000;text-rendering:geometricprecision;" y="16"><tspan style="font-weight:bold">Non-Residential - Retail</tspan><tspan dx="0">: 3.42 %</tspan></text></g><g  style="cursor:pointer;" transform="translate(113,109)"><text x="5"  style="font-size:11px;font-weight:bold;color:#000000;text-shadow:0 0 6px #ffffff, 0 0 3px #ffffff;fill:#000000;text-rendering:geometricprecision;" y="16"><tspan style="font-weight:bold">Non-Residential - Public Open Space</tspan><tspan dx="0">: 3.38 %</tspan></text></g><g  style="cursor:pointer;" transform="translate(168,83)"><text x="5"  style="font-size:11px;font-weight:bold;color:#000000;text-shadow:0 0 6px #ffffff, 0 0 3px #ffffff;fill:#000000;text-rendering:geometricprecision;" y="16"><tspan style="font-weight:bold">Non-Residential - Healthcare</tspan><tspan dx="0">: 2.53 %</tspan></text></g><g  style="cursor:pointer;" transform="translate(201,57)"><text x="5"  style="font-size:11px;font-weight:bold;color:#000000;text-shadow:0 0 6px #ffffff, 0 0 3px #ffffff;fill:#000000;text-rendering:geometricprecision;" y="16"><tspan style="font-weight:bold">Non-Residential - Industrial</tspan><tspan dx="0">: 1.93 %</tspan></text></g><g  style="cursor:pointer;" transform="translate(236,31)"><text x="5"  style="font-size:11px;font-weight:bold;color:#000000;text-shadow:0 0 6px #ffffff, 0 0 3px #ffffff;fill:#000000;text-rendering:geometricprecision;" y="16"><tspan style="font-weight:bold">Non-Residential - Community</tspan><tspan dx="0">: 1.16 %</tspan></text></g><g  style="cursor:pointer;" transform="translate(340,5)"><text x="5"  style="font-size:11px;font-weight:bold;color:#000000;text-shadow:0 0 6px #ffffff, 0 0 3px #ffffff;fill:#000000;text-rendering:geometricprecision;" y="16"><tspan style="font-weight:bold">Non-Residential - Education</tspan><tspan dx="0">: 0.59 %</tspan></text></g></g><g class="highcharts-tooltip"  style="cursor:default;padding:0;pointer-events:none;white-space:nowrap;" transform="translate(0,-9999)"><path fill="none" d="M 3.5 0.5 L 13.5 0.5 C 16.5 0.5 16.5 0.5 16.5 3.5 L 16.5 13.5 C 16.5 16.5 16.5 16.5 13.5 16.5 L 3.5 16.5 C 0.5 16.5 0.5 16.5 0.5 13.5 L 0.5 3.5 C 0.5 0.5 0.5 0.5 3.5 0.5"  stroke="black" stroke-opacity="0.049999999999999996" stroke-width="5" transform="translate(1, 1)"></path><path fill="none" d="M 3.5 0.5 L 13.5 0.5 C 16.5 0.5 16.5 0.5 16.5 3.5 L 16.5 13.5 C 16.5 16.5 16.5 16.5 13.5 16.5 L 3.5 16.5 C 0.5 16.5 0.5 16.5 0.5 13.5 L 0.5 3.5 C 0.5 0.5 0.5 0.5 3.5 0.5"  stroke="black" stroke-opacity="0.09999999999999999" stroke-width="3" transform="translate(1, 1)"></path><path fill="none" d="M 3.5 0.5 L 13.5 0.5 C 16.5 0.5 16.5 0.5 16.5 3.5 L 16.5 13.5 C 16.5 16.5 16.5 16.5 13.5 16.5 L 3.5 16.5 C 0.5 16.5 0.5 16.5 0.5 13.5 L 0.5 3.5 C 0.5 0.5 0.5 0.5 3.5 0.5"  stroke="black" stroke-opacity="0.15" stroke-width="1" transform="translate(1, 1)"></path><path fill="rgb(249, 249, 249)" fill-opacity=" .85" d="M 3.5 0.5 L 13.5 0.5 C 16.5 0.5 16.5 0.5 16.5 3.5 L 16.5 13.5 C 16.5 16.5 16.5 16.5 13.5 16.5 L 3.5 16.5 C 0.5 16.5 0.5 16.5 0.5 13.5 L 0.5 3.5 C 0.5 0.5 0.5 0.5 3.5 0.5"></path><text x="8"  style="font-size:13px;font-family:'helvetica neue', 'arial', sans-serif;color:#333333;fill:#333333;" y="21"></text></g></svg>