<?xml version="1.0" standalone="no"?><!DOCTYPE svg PUBLIC "-//W3C//DTD SVG 1.1//EN" "http://www.w3.org/Graphics/SVG/1.1/DTD/svg11.dtd"><svg xmlns:xlink="http://www.w3.org/1999/xlink" version="1.1" style="font-family:'jaf-domus-titling-web', 'helvetica neue', 'arial', sans-serif;font-size:12px;" xmlns="http://www.w3.org/2000/svg" width="1100" height="550"><desc>Created with Highstock 4.2.3</desc><defs><clipPath id="highcharts-442"><rect x="0" y="0" width="1013" height="355"></rect></clipPath></defs><rect x="0" y="0" width="1100" height="550" fill="#FFFFFF" class=" highcharts-background"></rect><g class="highcharts-grid" ></g><g class="highcharts-grid" ><path fill="none" d="M 77 407.5 L 1090 407.5" stroke="#D8D8D8" stroke-width="1"  opacity="1"></path><path fill="none" d="M 77 348.5 L 1090 348.5" stroke="#D8D8D8" stroke-width="1"  opacity="1"></path><path fill="none" d="M 77 289.5 L 1090 289.5" stroke="#D8D8D8" stroke-width="1"  opacity="1"></path><path fill="none" d="M 77 230.5 L 1090 230.5" stroke="#D8D8D8" stroke-width="1"  opacity="1"></path><path fill="none" d="M 77 170.5 L 1090 170.5" stroke="#D8D8D8" stroke-width="1"  opacity="1"></path><path fill="none" d="M 77 111.5 L 1090 111.5" stroke="#D8D8D8" stroke-width="1"  opacity="1"></path><path fill="none" d="M 77 51.5 L 1090 51.5" stroke="#D8D8D8" stroke-width="1"  opacity="1"></path></g><g class="highcharts-axis" ><path fill="none" d="M 111.5 407 L 111.5 417" stroke="#C0D0E0" stroke-width="1" opacity="1"></path><path fill="none" d="M 146.5 407 L 146.5 417" stroke="#C0D0E0" stroke-width="1" opacity="1"></path><path fill="none" d="M 181.5 407 L 181.5 417" stroke="#C0D0E0" stroke-width="1" opacity="1"></path><path fill="none" d="M 216.5 407 L 216.5 417" stroke="#C0D0E0" stroke-width="1" opacity="1"></path><path fill="none" d="M 251.5 407 L 251.5 417" stroke="#C0D0E0" stroke-width="1" opacity="1"></path><path fill="none" d="M 286.5 407 L 286.5 417" stroke="#C0D0E0" stroke-width="1" opacity="1"></path><path fill="none" d="M 321.5 407 L 321.5 417" stroke="#C0D0E0" stroke-width="1" opacity="1"></path><path fill="none" d="M 355.5 407 L 355.5 417" stroke="#C0D0E0" stroke-width="1" opacity="1"></path><path fill="none" d="M 390.5 407 L 390.5 417" stroke="#C0D0E0" stroke-width="1" opacity="1"></path><path fill="none" d="M 425.5 407 L 425.5 417" stroke="#C0D0E0" stroke-width="1" opacity="1"></path><path fill="none" d="M 460.5 407 L 460.5 417" stroke="#C0D0E0" stroke-width="1" opacity="1"></path><path fill="none" d="M 495.5 407 L 495.5 417" stroke="#C0D0E0" stroke-width="1" opacity="1"></path><path fill="none" d="M 530.5 407 L 530.5 417" stroke="#C0D0E0" stroke-width="1" opacity="1"></path><path fill="none" d="M 565.5 407 L 565.5 417" stroke="#C0D0E0" stroke-width="1" opacity="1"></path><path fill="none" d="M 600.5 407 L 600.5 417" stroke="#C0D0E0" stroke-width="1" opacity="1"></path><path fill="none" d="M 635.5 407 L 635.5 417" stroke="#C0D0E0" stroke-width="1" opacity="1"></path><path fill="none" d="M 670.5 407 L 670.5 417" stroke="#C0D0E0" stroke-width="1" opacity="1"></path><path fill="none" d="M 705.5 407 L 705.5 417" stroke="#C0D0E0" stroke-width="1" opacity="1"></path><path fill="none" d="M 740.5 407 L 740.5 417" stroke="#C0D0E0" stroke-width="1" opacity="1"></path><path fill="none" d="M 775.5 407 L 775.5 417" stroke="#C0D0E0" stroke-width="1" opacity="1"></path><path fill="none" d="M 810.5 407 L 810.5 417" stroke="#C0D0E0" stroke-width="1" opacity="1"></path><path fill="none" d="M 844.5 407 L 844.5 417" stroke="#C0D0E0" stroke-width="1" opacity="1"></path><path fill="none" d="M 879.5 407 L 879.5 417" stroke="#C0D0E0" stroke-width="1" opacity="1"></path><path fill="none" d="M 914.5 407 L 914.5 417" stroke="#C0D0E0" stroke-width="1" opacity="1"></path><path fill="none" d="M 949.5 407 L 949.5 417" stroke="#C0D0E0" stroke-width="1" opacity="1"></path><path fill="none" d="M 984.5 407 L 984.5 417" stroke="#C0D0E0" stroke-width="1" opacity="1"></path><path fill="none" d="M 1019.5 407 L 1019.5 417" stroke="#C0D0E0" stroke-width="1" opacity="1"></path><path fill="none" d="M 1054.5 407 L 1054.5 417" stroke="#C0D0E0" stroke-width="1" opacity="1"></path><path fill="none" d="M 1090.5 407 L 1090.5 417" stroke="#C0D0E0" stroke-width="1" opacity="1"></path><path fill="none" d="M 76.5 407 L 76.5 417" stroke="#C0D0E0" stroke-width="1" opacity="1"></path><path fill="none" d="M 77 407.5 L 1090 407.5" stroke="#C0D0E0" stroke-width="1" ></path></g><g class="highcharts-axis" ><text x="27"  text-anchor="middle" transform="translate(0,0) rotate(270 27 229.5)" class=" highcharts-yaxis-title" style="color:black;font-size:15px;font-family:'helvetica neue', 'arial', sans-serif;fill:black;" y="229.5"><tspan>kL / m2</tspan></text></g><g class="highcharts-series-group" ><g class="highcharts-series highcharts-series-0"  transform="translate(77,52) scale(1 1)" clip-path="url(#highcharts-442)"><rect x="5.5" y="212.5" width="23" height="143" stroke="#FFFFFF" stroke-width="1" fill="#9d69bf" rx="0" ry="0"></rect><rect x="40.5" y="254.5" width="23" height="101" stroke="#FFFFFF" stroke-width="1" fill="#9d69bf" rx="0" ry="0"></rect><rect x="75.5" y="196.5" width="23" height="159" stroke="#FFFFFF" stroke-width="1" fill="#9d69bf" rx="0" ry="0"></rect><rect x="110.5" y="108.5" width="23" height="247" stroke="#FFFFFF" stroke-width="1" fill="#9d69bf" rx="0" ry="0"></rect><rect x="145.5" y="91.5" width="23" height="264" stroke="#FFFFFF" stroke-width="1" fill="#9d69bf" rx="0" ry="0"></rect><rect x="180.5" y="75.5" width="23" height="280" stroke="#FFFFFF" stroke-width="1" fill="#9d69bf" rx="0" ry="0"></rect><rect x="215.5" y="298.5" width="23" height="57" stroke="#FFFFFF" stroke-width="1" fill="#9d69bf" rx="0" ry="0"></rect><rect x="250.5" y="330.5" width="23" height="25" stroke="#FFFFFF" stroke-width="1" fill="#9d69bf" rx="0" ry="0"></rect><rect x="285.5" y="153.5" width="23" height="202" stroke="#FFFFFF" stroke-width="1" fill="#9d69bf" rx="0" ry="0"></rect><rect x="320.5" y="234.5" width="23" height="121" stroke="#FFFFFF" stroke-width="1" fill="#9d69bf" rx="0" ry="0"></rect><rect x="355.5" y="339.5" width="23" height="16" stroke="#FFFFFF" stroke-width="1" fill="#9d69bf" rx="0" ry="0"></rect><rect x="390.5" y="277.5" width="23" height="78" stroke="#FFFFFF" stroke-width="1" fill="#9d69bf" rx="0" ry="0"></rect><rect x="424.5" y="156.5" width="23" height="199" stroke="#FFFFFF" stroke-width="1" fill="#9d69bf" rx="0" ry="0"></rect><rect x="459.5" y="272.5" width="23" height="83" stroke="#FFFFFF" stroke-width="1" fill="#9d69bf" rx="0" ry="0"></rect><rect x="494.5" y="314.5" width="23" height="41" stroke="#FFFFFF" stroke-width="1" fill="#9d69bf" rx="0" ry="0"></rect><rect x="529.5" y="176.5" width="23" height="179" stroke="#FFFFFF" stroke-width="1" fill="#9d69bf" rx="0" ry="0"></rect><rect x="564.5" y="136.5" width="23" height="219" stroke="#FFFFFF" stroke-width="1" fill="#9d69bf" rx="0" ry="0"></rect><rect x="599.5" y="140.5" width="23" height="215" stroke="#FFFFFF" stroke-width="1" fill="#9d69bf" rx="0" ry="0"></rect><rect x="634.5" y="103.5" width="23" height="252" stroke="#FFFFFF" stroke-width="1" fill="#9d69bf" rx="0" ry="0"></rect><rect x="669.5" y="128.5" width="23" height="227" stroke="#FFFFFF" stroke-width="1" fill="#9d69bf" rx="0" ry="0"></rect><rect x="704.5" y="197.5" width="23" height="158" stroke="#FFFFFF" stroke-width="1" fill="#9d69bf" rx="0" ry="0"></rect><rect x="739.5" y="164.5" width="23" height="191" stroke="#FFFFFF" stroke-width="1" fill="#9d69bf" rx="0" ry="0"></rect><rect x="774.5" y="150.5" width="23" height="205" stroke="#FFFFFF" stroke-width="1" fill="#9d69bf" rx="0" ry="0"></rect><rect x="809.5" y="88.5" width="23" height="267" stroke="#FFFFFF" stroke-width="1" fill="#9d69bf" rx="0" ry="0"></rect><rect x="844.5" y="152.5" width="23" height="203" stroke="#FFFFFF" stroke-width="1" fill="#9d69bf" rx="0" ry="0"></rect><rect x="879.5" y="122.5" width="23" height="233" stroke="#FFFFFF" stroke-width="1" fill="#9d69bf" rx="0" ry="0"></rect><rect x="913.5" y="250.5" width="23" height="105" stroke="#FFFFFF" stroke-width="1" fill="#9d69bf" rx="0" ry="0"></rect><rect x="948.5" y="47.5" width="23" height="308" stroke="#FFFFFF" stroke-width="1" fill="#9d69bf" rx="0" ry="0"></rect><rect x="983.5" y="240.5" width="23" height="115" stroke="#FFFFFF" stroke-width="1" fill="#9d69bf" rx="0" ry="0"></rect></g><g class="highcharts-markers highcharts-series-0"  transform="translate(77,52) scale(1 1)" clip-path="none"></g></g><text x="550" text-anchor="middle" class="highcharts-title"  style="color:black;font-size:18px;fill:black;width:1036px;" y="24"><tspan>City of Sydney - Potable water consumption intensity by suburb floorspace (2005_06)</tspan></text><g class="highcharts-axis-labels highcharts-xaxis-labels" ><text x="97.52964662652101" style="color:black;cursor:default;font-size:13px;font-family:'helvetica neue', 'arial', sans-serif;fill:black;width:550px;text-overflow:ellipsis;" text-anchor="end" transform="translate(0,0) rotate(-45 97.52964662652101 424)" y="424" opacity="1"><tspan>Alexandria</tspan></text><text x="132.46068110927965" style="color:black;cursor:default;font-size:13px;font-family:'helvetica neue', 'arial', sans-serif;fill:black;width:550px;text-overflow:ellipsis;" text-anchor="end" transform="translate(0,0) rotate(-45 132.46068110927965 424)" y="424" opacity="1"><tspan>Beaconsfield</tspan></text><text x="167.39171559203825" style="color:black;cursor:default;font-size:13px;font-family:'helvetica neue', 'arial', sans-serif;fill:black;width:550px;text-overflow:ellipsis;" text-anchor="end" transform="translate(0,0) rotate(-45 167.39171559203825 424)" y="424" opacity="1"><tspan>Camperdown</tspan></text><text x="202.3227500747969" style="color:black;cursor:default;font-size:13px;font-family:'helvetica neue', 'arial', sans-serif;fill:black;width:550px;text-overflow:ellipsis;" text-anchor="end" transform="translate(0,0) rotate(-45 202.3227500747969 424)" y="424" opacity="1"><tspan>Centennial Park</tspan></text><text x="237.2537845575555" style="color:black;cursor:default;font-size:13px;font-family:'helvetica neue', 'arial', sans-serif;fill:black;width:550px;text-overflow:ellipsis;" text-anchor="end" transform="translate(0,0) rotate(-45 237.2537845575555 424)" y="424" opacity="1"><tspan>Chippendale</tspan></text><text x="272.18481904031415" style="color:black;cursor:default;font-size:13px;font-family:'helvetica neue', 'arial', sans-serif;fill:black;width:550px;text-overflow:ellipsis;" text-anchor="end" transform="translate(0,0) rotate(-45 272.18481904031415 424)" y="424" opacity="1"><tspan>Darlinghurst</tspan></text><text x="307.11585352307276" style="color:black;cursor:default;font-size:13px;font-family:'helvetica neue', 'arial', sans-serif;fill:black;width:550px;text-overflow:ellipsis;" text-anchor="end" transform="translate(0,0) rotate(-45 307.11585352307276 424)" y="424" opacity="1"><tspan>Darlington</tspan></text><text x="342.04688800583136" style="color:black;cursor:default;font-size:13px;font-family:'helvetica neue', 'arial', sans-serif;fill:black;width:550px;text-overflow:ellipsis;" text-anchor="end" transform="translate(0,0) rotate(-45 342.04688800583136 424)" y="424" opacity="1"><tspan>Dawes Point</tspan></text><text x="376.97792248858997" style="color:black;cursor:default;font-size:13px;font-family:'helvetica neue', 'arial', sans-serif;fill:black;width:550px;text-overflow:ellipsis;" text-anchor="end" transform="translate(0,0) rotate(-45 376.97792248858997 424)" y="424" opacity="1"><tspan>Elizabeth Bay</tspan></text><text x="411.9089569713486" style="color:black;cursor:default;font-size:13px;font-family:'helvetica neue', 'arial', sans-serif;fill:black;width:550px;text-overflow:ellipsis;" text-anchor="end" transform="translate(0,0) rotate(-45 411.9089569713486 424)" y="424" opacity="1"><tspan>Erskineville</tspan></text><text x="446.83999145410723" style="color:black;cursor:default;font-size:13px;font-family:'helvetica neue', 'arial', sans-serif;fill:black;width:550px;text-overflow:ellipsis;" text-anchor="end" transform="translate(0,0) rotate(-45 446.83999145410723 424)" y="424" opacity="1"><tspan>Eveleigh</tspan></text><text x="481.77102593686584" style="color:black;cursor:default;font-size:13px;font-family:'helvetica neue', 'arial', sans-serif;fill:black;width:550px;text-overflow:ellipsis;" text-anchor="end" transform="translate(0,0) rotate(-45 481.77102593686584 424)" y="424" opacity="1"><tspan>Forest Lodge + Annandale</tspan></text><text x="516.7020604196244" style="color:black;cursor:default;font-size:13px;font-family:'helvetica neue', 'arial', sans-serif;fill:black;width:550px;text-overflow:ellipsis;" text-anchor="end" transform="translate(0,0) rotate(-45 516.7020604196244 424)" y="424" opacity="1"><tspan>Glebe</tspan></text><text x="551.633094902383" style="color:black;cursor:default;font-size:13px;font-family:'helvetica neue', 'arial', sans-serif;fill:black;width:550px;text-overflow:ellipsis;" text-anchor="end" transform="translate(0,0) rotate(-45 551.633094902383 424)" y="424" opacity="1"><tspan>Haymarket</tspan></text><text x="586.5641293851417" style="color:black;cursor:default;font-size:13px;font-family:'helvetica neue', 'arial', sans-serif;fill:black;width:550px;text-overflow:ellipsis;" text-anchor="end" transform="translate(0,0) rotate(-45 586.5641293851417 424)" y="424" opacity="1"><tspan>Millers Point + Barangaroo</tspan></text><text x="621.4951638679003" style="color:black;cursor:default;font-size:13px;font-family:'helvetica neue', 'arial', sans-serif;fill:black;width:550px;text-overflow:ellipsis;" text-anchor="end" transform="translate(0,0) rotate(-45 621.4951638679003 424)" y="424" opacity="1"><tspan>Newtown + St Peters</tspan></text><text x="656.4261983506589" style="color:black;cursor:default;font-size:13px;font-family:'helvetica neue', 'arial', sans-serif;fill:black;width:550px;text-overflow:ellipsis;" text-anchor="end" transform="translate(0,0) rotate(-45 656.4261983506589 424)" y="424" opacity="1"><tspan>Paddington</tspan></text><text x="691.3572328334175" style="color:black;cursor:default;font-size:13px;font-family:'helvetica neue', 'arial', sans-serif;fill:black;width:550px;text-overflow:ellipsis;" text-anchor="end" transform="translate(0,0) rotate(-45 691.3572328334175 424)" y="424" opacity="1"><tspan>Potts Point</tspan></text><text x="726.2882673161761" style="color:black;cursor:default;font-size:13px;font-family:'helvetica neue', 'arial', sans-serif;fill:black;width:550px;text-overflow:ellipsis;" text-anchor="end" transform="translate(0,0) rotate(-45 726.2882673161761 424)" y="424" opacity="1"><tspan>Pyrmont</tspan></text><text x="761.2193017989347" style="color:black;cursor:default;font-size:13px;font-family:'helvetica neue', 'arial', sans-serif;fill:black;width:550px;text-overflow:ellipsis;" text-anchor="end" transform="translate(0,0) rotate(-45 761.2193017989347 424)" y="424" opacity="1"><tspan>Redfern</tspan></text><text x="796.1503362816934" style="color:black;cursor:default;font-size:13px;font-family:'helvetica neue', 'arial', sans-serif;fill:black;width:550px;text-overflow:ellipsis;" text-anchor="end" transform="translate(0,0) rotate(-45 796.1503362816934 424)" y="424" opacity="1"><tspan>Rosebery</tspan></text><text x="831.081370764452" style="color:black;cursor:default;font-size:13px;font-family:'helvetica neue', 'arial', sans-serif;fill:black;width:550px;text-overflow:ellipsis;" text-anchor="end" transform="translate(0,0) rotate(-45 831.081370764452 424)" y="424" opacity="1"><tspan>Rushcutters Bay</tspan></text><text x="866.0124052472106" style="color:black;cursor:default;font-size:13px;font-family:'helvetica neue', 'arial', sans-serif;fill:black;width:550px;text-overflow:ellipsis;" text-anchor="end" transform="translate(0,0) rotate(-45 866.0124052472106 424)" y="424" opacity="1"><tspan>Surry Hills</tspan></text><text x="900.9434397299692" style="color:black;cursor:default;font-size:13px;font-family:'helvetica neue', 'arial', sans-serif;fill:black;width:550px;text-overflow:ellipsis;" text-anchor="end" transform="translate(0,0) rotate(-45 900.9434397299692 424)" y="424" opacity="1"><tspan>Sydney</tspan></text><text x="935.8744742127278" style="color:black;cursor:default;font-size:13px;font-family:'helvetica neue', 'arial', sans-serif;fill:black;width:550px;text-overflow:ellipsis;" text-anchor="end" transform="translate(0,0) rotate(-45 935.8744742127278 424)" y="424" opacity="1"><tspan>The Rocks</tspan></text><text x="970.8055086954864" style="color:black;cursor:default;font-size:13px;font-family:'helvetica neue', 'arial', sans-serif;fill:black;width:550px;text-overflow:ellipsis;" text-anchor="end" transform="translate(0,0) rotate(-45 970.8055086954864 424)" y="424" opacity="1"><tspan>Ultimo</tspan></text><text x="1005.736543178245" style="color:black;cursor:default;font-size:13px;font-family:'helvetica neue', 'arial', sans-serif;fill:black;width:550px;text-overflow:ellipsis;" text-anchor="end" transform="translate(0,0) rotate(-45 1005.736543178245 424)" y="424" opacity="1"><tspan>Waterloo + Moore Park</tspan></text><text x="1040.6675776610039" style="color:black;cursor:default;font-size:13px;font-family:'helvetica neue', 'arial', sans-serif;fill:black;width:550px;text-overflow:ellipsis;" text-anchor="end" transform="translate(0,0) rotate(-45 1040.6675776610039 424)" y="424" opacity="1"><tspan>Woolloomooloo</tspan></text><text x="1075.5986121437625" style="color:black;cursor:default;font-size:13px;font-family:'helvetica neue', 'arial', sans-serif;fill:black;width:550px;text-overflow:ellipsis;" text-anchor="end" transform="translate(0,0) rotate(-45 1075.5986121437625 424)" y="424" opacity="1"><tspan>Zetland</tspan></text></g><g class="highcharts-axis-labels highcharts-yaxis-labels" ><text x="62" style="color:black;cursor:default;font-size:13px;font-family:'helvetica neue', 'arial', sans-serif;fill:black;width:353px;text-overflow:clip;" text-anchor="end" transform="translate(0,0)" y="413" opacity="1">0</text><text x="62" style="color:black;cursor:default;font-size:13px;font-family:'helvetica neue', 'arial', sans-serif;fill:black;width:353px;text-overflow:clip;" text-anchor="end" transform="translate(0,0)" y="176" opacity="1">1</text><text x="62" style="color:black;cursor:default;font-size:13px;font-family:'helvetica neue', 'arial', sans-serif;fill:black;width:353px;text-overflow:clip;" text-anchor="end" transform="translate(0,0)" y="353" opacity="1">0.25</text><text x="62" style="color:black;cursor:default;font-size:13px;font-family:'helvetica neue', 'arial', sans-serif;fill:black;width:353px;text-overflow:clip;" text-anchor="end" transform="translate(0,0)" y="294" opacity="1">0.5</text><text x="62" style="color:black;cursor:default;font-size:13px;font-family:'helvetica neue', 'arial', sans-serif;fill:black;width:353px;text-overflow:clip;" text-anchor="end" transform="translate(0,0)" y="235" opacity="1">0.75</text><text x="62" style="color:black;cursor:default;font-size:13px;font-family:'helvetica neue', 'arial', sans-serif;fill:black;width:353px;text-overflow:clip;" text-anchor="end" transform="translate(0,0)" y="117" opacity="1">1.25</text><text x="62" style="color:black;cursor:default;font-size:13px;font-family:'helvetica neue', 'arial', sans-serif;fill:black;width:353px;text-overflow:clip;" text-anchor="end" transform="translate(0,0)" y="58" opacity="1">1.5</text></g><g class="highcharts-tooltip"  style="cursor:default;padding:0;pointer-events:none;white-space:nowrap;" transform="translate(0,-9999)"><path fill="none" d="M 3.5 0.5 L 13.5 0.5 C 16.5 0.5 16.5 0.5 16.5 3.5 L 16.5 13.5 C 16.5 16.5 16.5 16.5 13.5 16.5 L 3.5 16.5 C 0.5 16.5 0.5 16.5 0.5 13.5 L 0.5 3.5 C 0.5 0.5 0.5 0.5 3.5 0.5"  stroke="black" stroke-opacity="0.049999999999999996" stroke-width="5" transform="translate(1, 1)"></path><path fill="none" d="M 3.5 0.5 L 13.5 0.5 C 16.5 0.5 16.5 0.5 16.5 3.5 L 16.5 13.5 C 16.5 16.5 16.5 16.5 13.5 16.5 L 3.5 16.5 C 0.5 16.5 0.5 16.5 0.5 13.5 L 0.5 3.5 C 0.5 0.5 0.5 0.5 3.5 0.5"  stroke="black" stroke-opacity="0.09999999999999999" stroke-width="3" transform="translate(1, 1)"></path><path fill="none" d="M 3.5 0.5 L 13.5 0.5 C 16.5 0.5 16.5 0.5 16.5 3.5 L 16.5 13.5 C 16.5 16.5 16.5 16.5 13.5 16.5 L 3.5 16.5 C 0.5 16.5 0.5 16.5 0.5 13.5 L 0.5 3.5 C 0.5 0.5 0.5 0.5 3.5 0.5"  stroke="black" stroke-opacity="0.15" stroke-width="1" transform="translate(1, 1)"></path><path fill="rgb(249, 249, 249)" fill-opacity=" .85" d="M 3.5 0.5 L 13.5 0.5 C 16.5 0.5 16.5 0.5 16.5 3.5 L 16.5 13.5 C 16.5 16.5 16.5 16.5 13.5 16.5 L 3.5 16.5 C 0.5 16.5 0.5 16.5 0.5 13.5 L 0.5 3.5 C 0.5 0.5 0.5 0.5 3.5 0.5"></path><text x="8"  style="font-size:13px;font-family:'helvetica neue', 'arial', sans-serif;color:#333333;fill:#333333;" y="21"></text></g></svg>